<?xml version="1.0" encoding="utf-8"?>
<!-- Generator: Adobe Illustrator 22.0.1, SVG Export Plug-In . SVG Version: 6.00 Build 0)  -->
<svg version="1.1" id="Camada_1" xmlns="http://www.w3.org/2000/svg" xmlns:xlink="http://www.w3.org/1999/xlink" x="0px" y="0px"
	 viewBox="0 0 1142.9 875.7" style="enable-background:new 0 0 1142.9 875.7;" xml:space="preserve">
<style type="text/css">
	.st0{fill:#FFFFFF;}
	.st1{fill:#AAAAAA;}
	.st2{fill:#C2C2C2;}
	.st3{fill:#D3D3D3;}
	.st4{fill:#989898;}
	.st5{fill:#F5F5F5;}
	.st6{fill:#A8A8A8;}
	.st7{fill:#D4D4D4;}
	.st8{fill:#BEBEBE;}
	.st9{fill:#8A8A8A;}
	.st10{fill:#737373;}
	.st11{fill:#D9D9D9;}
	.st12{fill:#BDBDBD;}
	.st13{fill:#EBEBEB;}
	.st14{fill:#B2B2B2;}
	.st15{fill:#5A5A5A;}
	.st16{fill:#7A7A7A;}
	.st17{fill:#E2E2E2;}
	.st18{fill:#E9E9E9;}
	.st19{fill:#C1C1C1;}
	.st20{fill:#626262;}
	.st21{fill:#B7B7B7;}
	.st22{fill:#F7F7F7;}
	.st23{fill:#F8F8F8;}
	.st24{fill:#E3E3E3;}
	.st25{fill:#EAEAEA;}
	.st26{fill:#3C3C3C;}
	.st27{fill:#373737;}
	.st28{fill:#6B6B6B;}
	.st29{fill:#343434;}
	.st30{fill:#262626;}
	.st31{fill:#787878;}
	.st32{fill:#4BA1D9;}
	.st33{fill:#8EB5E0;}
	.st34{fill:#C0D965;}
	.st35{fill:#4CA447;}
	.st36{fill:#E6F3E8;}
	.st37{fill:#5DA1D4;}
	.st38{fill:#51A0D8;}
	.st39{fill:#C0DA65;}
	.st40{fill:#92C740;}
	.st41{fill:#E7EEF6;}
	.st42{fill:#3D86C7;}
	.st43{fill:#3F74BA;}
	.st44{fill:#9ACEEB;}
	.st45{fill:#8CC641;}
	.st46{fill:#C9E7DB;}
	.st47{fill:#65BB47;}
	.st48{fill:#6DBB45;}
	.st49{fill:#79B443;}
	.st50{fill:#0C64AF;}
	.st51{fill:#367DAE;}
	.st52{fill:#BCD8F1;}
	.st53{fill:#CFE3D8;}
	.st54{fill:#97CA41;}
	.st55{fill:#9ECA3B;}
	.st56{fill:#3668B2;}
	.st57{fill:#288D44;}
	.st58{fill:#7BC044;}
	.st59{fill:#E8F3F6;}
	.st60{fill:#ECF6EC;}
	.st61{fill:#BBD9F2;}
	.st62{fill:#C9E5DC;}
	.st63{fill:#4C91CD;}
	.st64{fill:#004FA3;}
	.st65{fill:#224A9D;}
	.st66{fill:#88B6D7;}
	.st67{fill:#1A8859;}
	.st68{fill:#595A5C;}
	.st69{fill:#59595B;}
	.st70{fill:#1979BE;}
	.st71{fill:#59585A;}
</style>
<g>
	<path class="st32" d="M643.3,175.3c-3-12.9-6.9-23.9-11.6-32.5c-14.8-3.7-30.6-5.9-46.7-6.6c2.8,8.9,4.9,20.2,6.3,32.7
		C610.8,169.8,628.2,172.1,643.3,175.3"/>
	<path class="st33" d="M533.8,138.8c-17,2.6-33.3,7-48.1,13.2c-2.6,7.3-5.1,17.2-7.5,29.9c15.1-4.9,33.5-9,55.1-11.4
		C533.6,159.3,533.8,148.7,533.8,138.8"/>
	<path class="st34" d="M471.9,227.3c-1.3,11.8-2.4,24.9-3.5,39.2c-0.5,6.5-0.9,12.9-1.1,19.2c18.4-2,39.2-3.5,61-4.4
		c1.3-20.8,2.5-41.8,3.4-62C512.2,220.8,490.9,223.4,471.9,227.3"/>
	<path class="st35" d="M695,279.3c0,2.2-0.1,4.4-0.3,6.6c10.9,1.5,20.2,3.3,27.1,5.4c0.2-2.7,0.3-5.4,0.4-8.1
		c0.4-14.5-0.3-27.8-2-40c-7.1-4.5-16.5-8.2-27.1-11.3C694.9,247.4,695.4,263.4,695,279.3"/>
	<path class="st36" d="M466.7,343.5c0.5,18.8,1.6,35.2,2.9,48.5c17,3.2,33.4,5.5,49.2,7.1c1.6-16.4,3.2-34.5,4.8-53.8
		C505.2,344.9,486.1,344.3,466.7,343.5"/>
	<path class="st37" d="M686.9,342.9c-4.1,17.6-9.8,34.6-17.3,49.4c10.8-2.5,19.1-5.2,24.3-7.7c8.1-12.6,14.8-27.3,19.6-43.8
		C707,341.5,698,342.2,686.9,342.9"/>
	<path class="st38" d="M593.4,274.8c0,1.7,0,3.4-0.1,5.3c20.3,0.1,40.1,0.7,58.1,1.8c0.1-1.5,0.1-3.1,0.1-4.6
		c0.5-18.8,0-37.1-1.3-54c-20-2.8-40.1-4.3-56.1-5C594.7,240.5,594.1,261.3,593.4,274.8"/>
	<path class="st39" d="M576.1,401.8c19.1-0.1,36.6-1.1,52-2.8c7.1-17.1,12.3-35.8,15.9-54.3c-17.1,0.5-36.2,0.9-56.9,1
		C584.4,364.9,580.7,384.6,576.1,401.8"/>
	<path class="st40" d="M528.2,281.3c-21.7,0.9-42.5,2.4-61,4.4c-1,20.9-1,40.4-0.5,57.8c19.4,0.8,38.4,1.4,56.9,1.8
		C525.2,324.8,526.8,303.1,528.2,281.3"/>
	<path class="st41" d="M693.9,384.6c-5.2,2.5-13.5,5.1-24.3,7.7c-6.7,13.3-14.9,24.8-24.7,33.3c1.6-0.5,2.9-1,4-1.5
		c0.1,0,0.2,0.1,0.2,0.1c11.3-6.1,21.8-13.6,31.2-22.1C685.2,396.9,689.7,391.1,693.9,384.6"/>
	<path class="st42" d="M584.9,136.2c16.1,0.7,32,3,46.7,6.6c-5.2-9.4-11.3-15.9-18.4-18.6c-12.2-3.2-24.9-5.1-38-5.4
		c0,0.1,0,0.1,0,0.2C579.2,122.2,582.4,128.2,584.9,136.2"/>
	<path class="st42" d="M593.3,280.1c-0.5,17.3-2.5,41.1-6.1,65.6c20.7-0.1,39.8-0.5,56.9-1c4.4-22.4,6.7-44.4,7.4-62.8
		C633.4,280.8,613.6,280.3,593.3,280.1"/>
	<path class="st43" d="M686.9,342.9c11.1-0.7,20.1-1.3,26.6-2.1c4.5-15.2,7.3-31.8,8.4-49.5c-6.9-2.1-16.2-3.9-27.1-5.4
		C693.9,304.2,691.3,323.9,686.9,342.9"/>
	<path class="st44" d="M667.4,155.7c9.4,4.7,17.7,10.2,24.5,16.4c-11.6-12.8-25.2-23.7-40.3-32.2
		C657.7,144.3,662.9,149.6,667.4,155.7"/>
	<path class="st42" d="M720.2,243.2c-2.1-15.1-5.6-28.5-10.1-40c-0.6-0.5-1.3-1-1.9-1.5c-0.2-0.1-0.3-0.3-0.5-0.4
		c-0.1-0.1-0.2-0.1-0.2-0.2c-0.4-0.3-0.7-0.5-1.1-0.8c-0.1-0.1-0.2-0.1-0.3-0.2c-5.7-4.1-13.2-8.3-22.4-12.3
		c4.6,13.5,7.6,28.4,9.3,44C703.7,235,713.1,238.8,720.2,243.2"/>
	<path class="st45" d="M594.3,218.3c15.9,0.8,36.1,2.2,56.1,5c-1.4-17.7-3.7-33.9-7.1-48c-15.1-3.3-32.4-5.6-52-6.5
		C593,184.4,593.9,201.7,594.3,218.3"/>
	<path class="st46" d="M576.1,401.8c-3.6,13.5-7.7,25.6-12.3,34.8c16.7,0.4,32-0.9,45-2.8c7.6-10.1,14-22,19.4-34.8
		C612.7,400.7,595.2,401.8,576.1,401.8"/>
	<path class="st41" d="M533.7,123.4c0-0.1,0-0.1,0-0.2c-14.7,3.5-28.7,9-41.6,16.3c-2.2,2.5-4.4,6.6-6.5,12.5
		c14.7-6.2,31.1-10.6,48.1-13.2C533.8,133.5,533.8,128.3,533.7,123.4"/>
	<path class="st47" d="M531.6,219.3c0.7-17,1.3-33.4,1.7-48.7c-21.7,2.4-40,6.5-55.1,11.4c-2.3,12.4-4.4,27.5-6.3,45.4
		C490.9,223.4,512.2,220.8,531.6,219.3"/>
	<path class="st48" d="M591.2,168.8c-1.5-12.5-3.5-23.7-6.3-32.7c-17-0.8-34.4,0.1-51.1,2.6c0,9.9-0.2,20.5-0.4,31.7
		c12.1-1.3,25.2-2.1,39.3-2.1C579.1,168.4,585.2,168.6,591.2,168.8"/>
	<path class="st49" d="M587.2,345.7c-20,0.1-41.3,0-63.6-0.4c-1.6,19.2-3.2,37.4-4.8,53.8c20.3,2,39.5,2.9,57.3,2.8
		C580.7,384.6,584.4,364.9,587.2,345.7"/>
	<path class="st50" d="M651.6,277.3c0,1.5-0.1,3-0.1,4.6c16.1,1,30.8,2.3,43.3,4c0.1-2.2,0.2-4.4,0.3-6.6
		c0.4-15.9-0.1-31.9-1.9-47.3c-13-3.8-27.9-6.6-42.8-8.6C651.7,240.3,652.1,258.5,651.6,277.3"/>
	<path class="st51" d="M644.1,344.7c-3.7,18.5-8.9,37.3-15.9,54.3c16.2-1.7,30.2-4.2,41.4-6.7c7.5-14.8,13.2-31.8,17.3-49.4
		C674.9,343.6,660.5,344.3,644.1,344.7"/>
	<path class="st52" d="M468.4,266.5c1.1-14.3,2.2-27.4,3.5-39.2c-18.3,3.8-34.3,8.8-44.3,15.2c-1.3,9.7-2.2,19.9-2.8,31
		c-0.3,5.3-0.4,11.8-0.2,19c11.5-2.7,26.1-4.9,42.6-6.7C467.6,279.4,467.9,273,468.4,266.5"/>
	<path class="st53" d="M693.9,384.6c3.2-1.5,5.3-2.9,6.1-4.1c0,0.1,0.1,0.2,0.2,0.2c9.7-12.5,17.6-26.5,23.3-41.6
		c-1.8,0.5-5.2,1.1-10,1.6C708.7,357.3,702,372,693.9,384.6"/>
	<path class="st54" d="M697.5,179c0.7,1,1.3,2,2,3c0.2,0.4,0.5,0.7,0.7,1.1c0.5,0.7,0.9,1.5,1.4,2.3c0.2,0.4,0.5,0.8,0.7,1.3
		c0.5,0.9,1,1.8,1.5,2.7c0.2,0.4,0.4,0.7,0.6,1.1c0.5,1.1,1.1,2.2,1.6,3.3c0.2,0.5,0.4,1,0.7,1.5c0.4,0.8,0.8,1.6,1.1,2.4
		c0.2,0.5,0.4,1.1,0.7,1.6c0.5,1,0.9,2.1,1.3,3.1c0.1,0.3,0.2,0.6,0.3,0.8c4,3.3,6.9,6.5,8.7,9.3c-6.2-13.3-14.1-25.6-23.5-36.6
		C696,176.9,696.8,177.9,697.5,179C697.5,179,697.5,179,697.5,179"/>
	<path class="st55" d="M720.2,243.2c1.7,12.2,2.4,25.5,2,40c0,2.7-0.2,5.4-0.4,8.1c5.2,1.6,9.2,3.3,11.6,5.2
		c0.5-5,0.7-10.1,0.7-15.2c0-9.2-0.8-18.2-2.2-27C729.4,250.2,725.4,246.5,720.2,243.2"/>
	<path class="st56" d="M643.3,175.3c16,3.4,29.5,7.8,40.5,12.6c-4.1-12.1-9.5-23.1-16.4-32.3c-10.7-5.4-22.8-9.7-35.8-12.9
		C636.4,151.4,640.2,162.5,643.3,175.3"/>
	<path class="st35" d="M593.3,280.1c0.1-1.9,0.1-3.6,0.1-5.3c0.7-13.6,1.3-34.4,0.9-56.6c-10.3-0.5-18.9-0.7-24.5-0.7
		c-10.4,0-23.7,0.5-38.1,1.6c-0.9,20.3-2.1,41.2-3.4,62C549.5,280.4,571.7,280,593.3,280.1"/>
	<path class="st41" d="M478.2,181.9c2.3-12.7,4.9-22.6,7.5-29.9c-13.8,5.8-26.2,13.2-36.5,22.3c0,0,0,0-0.1,0
		c-4.8,9.1-8.6,17.8-11.7,26.4C446.2,194.8,459.7,187.8,478.2,181.9"/>
	<path class="st57" d="M594.3,218.3c-0.4-16.6-1.2-33.9-3-49.4c-6-0.3-12.2-0.4-18.6-0.4c-14.1,0-27.3,0.8-39.3,2.1
		c-0.4,15.4-1,31.8-1.7,48.7c14.4-1.1,27.7-1.6,38.1-1.6C575.4,217.6,583.9,217.8,594.3,218.3"/>
	<path class="st58" d="M713.5,340.8c4.8-0.5,8.2-1.1,10-1.6c5.1-13.5,8.6-27.8,9.9-42.7c-2.4-1.9-6.4-3.6-11.6-5.2
		C720.8,309,717.9,325.6,713.5,340.8"/>
	<path class="st35" d="M710.2,203.2c4.5,11.5,8,24.9,10.1,40c5.2,3.3,9.2,7,11.7,11.1c-2.5-14.7-6.9-28.8-13.1-41.8
		C717.1,209.7,714.2,206.5,710.2,203.2"/>
	<path class="st59" d="M518.8,399c-1.1,11.7-2.3,22.5-3.4,32c16.9,3.7,33.2,5.3,48.4,5.6c4.6-9.2,8.7-21.3,12.3-34.8
		C558.3,401.9,539.1,401.1,518.8,399"/>
	<path class="st60" d="M467.3,285.7c-16.5,1.8-31.1,4-42.6,6.7c0.3,15,1.6,33,3.8,49.2c12.8,0.8,25.7,1.4,38.3,1.9
		C466.2,326.1,466.3,306.6,467.3,285.7"/>
	<path class="st61" d="M608.8,433.8c15.9-2.3,28.5-5.6,36.1-8.2c9.8-8.5,17.9-20,24.7-33.3c-11.2,2.6-25.1,5-41.4,6.7
		C622.8,411.8,616.5,423.7,608.8,433.8"/>
	<path class="st62" d="M478.2,181.9c-18.5,5.9-32,12.9-40.8,18.9c-4.8,13.6-7.9,27.1-9.8,41.6c10-6.4,26-11.4,44.3-15.2
		C473.8,209.4,475.9,194.3,478.2,181.9"/>
	<path class="st63" d="M631.6,142.8c12.9,3.2,25.1,7.5,35.8,12.9c-4.5-6.1-9.8-11.4-15.7-15.8c-12-6.8-24.9-12.1-38.5-15.7
		C620.4,126.9,626.5,133.4,631.6,142.8"/>
	<path class="st64" d="M651.5,281.9c-0.7,18.5-2.9,40.5-7.4,62.8c16.4-0.5,30.8-1.1,42.8-1.8c4.4-19,7-38.7,7.8-57
		C682.3,284.2,667.5,282.8,651.5,281.9"/>
	<path class="st65" d="M650.4,223.3c14.9,2.1,29.8,4.9,42.8,8.6c-1.7-15.6-4.8-30.5-9.3-44c-11-4.8-24.5-9.2-40.5-12.6
		C646.6,189.4,649,205.6,650.4,223.3"/>
	<path class="st66" d="M533.8,138.8c16.7-2.6,34.1-3.4,51.1-2.6c-2.5-8-5.7-14-9.6-17.1c0-0.1,0-0.1,0-0.2c-1.3,0-2.5-0.1-3.7-0.1
		c-13.1,0-25.7,1.6-37.9,4.5c0,0.1,0,0.1,0,0.2C533.8,128.3,533.8,133.5,533.8,138.8"/>
	<path class="st67" d="M528.2,281.3c-1.4,21.8-3,43.5-4.6,64c22.3,0.4,43.6,0.5,63.6,0.4c3.6-24.5,5.6-48.3,6.1-65.6
		C571.7,280,549.5,280.4,528.2,281.3"/>
	<path class="st43" d="M667.4,155.7c6.9,9.2,12.3,20.1,16.4,32.3c9.2,4,16.6,8.2,22.4,12.3c0.1,0.1,0.2,0.1,0.3,0.2
		c0.4,0.2,0.7,0.5,1.1,0.8c0,0.1,0.1,0.1,0.2,0.2c0.2,0.1,0.4,0.3,0.5,0.4c0.7,0.5,1.3,1,1.9,1.5c-0.1-0.2-0.2-0.5-0.3-0.8
		c-0.4-1.1-0.9-2.1-1.3-3.1c-0.2-0.5-0.5-1.1-0.7-1.6c-0.4-0.8-0.8-1.6-1.1-2.4c-0.2-0.5-0.5-1-0.7-1.5c-0.5-1.1-1.1-2.2-1.6-3.3
		c-0.2-0.3-0.4-0.7-0.6-1.1c-0.5-0.9-1-1.8-1.5-2.7c-0.2-0.4-0.5-0.9-0.7-1.3c-0.5-0.8-0.9-1.6-1.4-2.3c-0.2-0.4-0.5-0.7-0.7-1.1
		c-0.7-1-1.3-2-2-3c0,0,0,0,0,0c-1.2-1.5-2.3-3-3.4-4.4c-0.7-0.8-1.4-1.6-2.1-2.4C685.1,165.9,676.8,160.4,667.4,155.7"/>
</g>
<g>
	<path class="st68" d="M1040.9,470c0,8.5-6.7,15.3-15.3,15.3c-8.5,0-15.3-6.8-15.3-15.3c0-8.5,6.8-15.2,15.4-15.2
		C1034.2,454.8,1040.9,461.5,1040.9,470z M1014.1,470c0,6.7,5,12.1,11.7,12.1c6.5,0.1,11.5-5.3,11.5-12c0-6.7-5-12.2-11.7-12.2
		C1019,457.9,1014.1,463.3,1014.1,470z M1023.2,477.8h-3.2v-15.2c1.3-0.2,3.1-0.5,5.4-0.5c2.7,0,4,0.5,5.1,1.3
		c0.9,0.6,1.6,1.8,1.6,3.2c0,1.7-1.5,3-3.2,3.6v0.2c1.6,0.5,2.2,1.7,2.7,3.7c0.5,2.2,0.8,3.2,1.2,3.7h-3.5c-0.5-0.6-0.8-1.8-1.2-3.7
		c-0.3-1.6-1.3-2.3-3.2-2.3h-1.7V477.8z M1023.3,469.3h1.7c1.9,0,3.5-0.6,3.5-2.1c0-1.5-0.9-2.3-3.2-2.3c-0.9,0-1.6,0.1-1.9,0.2
		V469.3z"/>
</g>
<g>
	<path class="st71" d="M271.7,716.9c0,0-0.7-0.2-2.2-0.5s-2.8-0.8-4.1-1.4s-2.5-1.4-3.6-2.3l3-3.6c1.3,1.1,2.7,2,4.3,2.5
		c1.6,0.6,3.2,0.8,5.1,0.8c2.5,0,4.4-0.5,5.7-1.4c1.4-0.9,2-2.2,2-3.9v0c0-1.2-0.3-2.1-0.9-2.8c-0.6-0.7-1.4-1.2-2.4-1.5
		c-1-0.3-2.2-0.6-3.8-0.9c0,0-0.1,0-0.2,0s-0.1,0-0.2,0l-0.3-0.1c-2.3-0.4-4.1-0.8-5.5-1.3c-1.4-0.5-2.6-1.4-3.7-2.7
		c-1-1.3-1.5-3.2-1.5-5.5v0c0-2.1,0.5-3.9,1.4-5.4s2.3-2.6,4.1-3.4c1.8-0.8,4-1.2,6.5-1.2c1.2,0,2.4,0.1,3.6,0.4s2.3,0.7,3.5,1.2
		c1.1,0.5,2.3,1.2,3.4,2l-2.7,3.8c-1.3-1-2.6-1.7-3.9-2.1c-1.3-0.5-2.6-0.7-3.9-0.7c-2.3,0-4.1,0.5-5.4,1.4
		c-1.3,0.9-1.9,2.2-1.9,3.9v0c0,1.2,0.3,2.1,1,2.8c0.7,0.7,1.5,1.2,2.5,1.5c1,0.3,2.4,0.7,4.1,1c0.1,0,0.1,0,0.2,0
		c0.1,0,0.1,0,0.2,0c0.1,0,0.2,0,0.3,0c0.1,0,0.2,0,0.3,0c2.1,0.4,3.8,0.9,5.2,1.5c1.4,0.6,2.5,1.5,3.5,2.8s1.4,3,1.4,5.3v0
		c0,2.1-0.5,3.8-1.5,5.3s-2.4,2.6-4.3,3.4c-1.9,0.8-4.1,1.2-6.7,1.2C272.5,716.9,271.7,716.9,271.7,716.9z"/>
	<path class="st71" d="M297.4,715.4c-1.8-1-3.2-2.5-4.2-4.4s-1.5-4.1-1.5-6.6v-9.6c0-2.5,0.5-4.7,1.5-6.6s2.4-3.4,4.2-4.4
		s3.9-1.6,6.3-1.6c2.4,0,4.5,0.5,6.3,1.6c1.8,1,3.2,2.5,4.2,4.4c1,1.9,1.5,4.1,1.5,6.6v9.6c0,2.5-0.5,4.7-1.5,6.6
		c-1,1.9-2.4,3.4-4.2,4.4c-1.8,1-3.9,1.6-6.3,1.6C301.3,716.9,299.2,716.4,297.4,715.4z M307.4,711.3c1.1-0.6,1.9-1.5,2.5-2.7
		c0.6-1.2,0.9-2.5,0.9-4v-10c0-1.5-0.3-2.9-0.9-4s-1.4-2.1-2.5-2.7c-1.1-0.6-2.3-0.9-3.7-0.9c-1.4,0-2.6,0.3-3.7,0.9
		c-1.1,0.6-1.9,1.5-2.5,2.7s-0.9,2.5-0.9,4v10c0,1.5,0.3,2.9,0.9,4c0.6,1.2,1.4,2.1,2.5,2.7c1.1,0.6,2.3,0.9,3.7,0.9
		C305.1,712.3,306.3,711.9,307.4,711.3z"/>
	<path class="st71" d="M322.4,682.6h4.8v34h-4.8V682.6z M324.8,712.1h19.4v4.5h-19.4V712.1z"/>
	<path class="st71" d="M353.9,715.5c-1.8-1-3.1-2.4-4.1-4.3s-1.4-4.2-1.4-6.8v-21.7h4.8v21.8c0,2.5,0.6,4.4,1.9,5.7s3,2,5.3,2
		c2.3,0,4.1-0.7,5.3-2s1.9-3.3,1.9-5.7v-21.8h4.8v21.7c0,2.7-0.5,4.9-1.4,6.8c-0.9,1.9-2.3,3.3-4.1,4.3c-1.8,1-3.9,1.5-6.5,1.5
		C357.8,716.9,355.7,716.5,353.9,715.5z"/>
	<path class="st71" d="M386.9,716.9c0,0-0.9-0.5-2.7-1.6c-1.8-1-3.2-2.5-4.1-4.4s-1.5-4.1-1.5-6.7V695c0-2.5,0.5-4.7,1.5-6.7
		s2.4-3.4,4.1-4.5c1.8-1.1,3.9-1.6,6.2-1.6c1.9,0,3.7,0.4,5.4,1.3c1.6,0.8,3,2,4.1,3.5s1.8,3.3,2.2,5.3h-4.9c-0.3-1.1-0.8-2-1.5-2.8
		c-0.7-0.8-1.5-1.5-2.4-1.9c-0.9-0.5-1.9-0.7-2.9-0.7c-1.4,0-2.6,0.3-3.6,1c-1,0.7-1.9,1.6-2.4,2.8c-0.6,1.2-0.9,2.6-0.9,4.2v9.3
		c0,1.6,0.3,3,0.9,4.2c0.6,1.2,1.4,2.2,2.4,2.8s2.3,1,3.6,1c1,0,2-0.2,2.9-0.6c0.9-0.4,1.7-1,2.4-1.9c0.7-0.8,1.2-1.8,1.5-2.9h4.9
		c-0.4,2-1.1,3.8-2.2,5.3c-1.1,1.5-2.5,2.7-4.1,3.5s-3.4,1.3-5.4,1.3C388,716.9,386.9,716.9,386.9,716.9z M386.1,726l1-3.3
		c0.7,0.2,1.5,0.3,2.2,0.3c0.9,0,1.5-0.1,1.9-0.3c0.4-0.2,0.6-0.5,0.6-0.9c0-0.4-0.3-0.7-0.8-0.9s-1.4-0.3-2.6-0.3l2-2.7
		c1.8,0,3.2,0.3,4.1,1s1.4,1.7,1.4,3.1c0,1.4-0.5,2.5-1.5,3.2c-1,0.7-2.5,1.1-4.5,1.1C388.4,726.5,387.1,726.3,386.1,726z
		 M391.9,715.2v5.6l-3.9,0v-5.6H391.9z"/>
	<path class="st71" d="M412.9,715.4c-1.8-1-3.2-2.5-4.2-4.4s-1.5-4.1-1.5-6.6v-9.6c0-2.5,0.5-4.7,1.5-6.6s2.4-3.4,4.2-4.4
		s3.9-1.6,6.3-1.6c2.4,0,4.5,0.5,6.3,1.6c1.8,1,3.2,2.5,4.2,4.4c1,1.9,1.5,4.1,1.5,6.6v9.6c0,2.5-0.5,4.7-1.5,6.6
		c-1,1.9-2.4,3.4-4.2,4.4c-1.8,1-3.9,1.6-6.3,1.6C416.8,716.9,414.7,716.4,412.9,715.4z M422.1,680.1c-0.4-0.1-0.8-0.2-1.2-0.3
		c-0.4-0.1-0.8-0.3-1.2-0.5l-0.1,0c-0.2-0.1-0.5-0.2-0.7-0.4c-0.2-0.1-0.4-0.2-0.7-0.4c-0.6-0.3-1.1-0.6-1.4-0.8
		c-0.4-0.2-0.8-0.2-1.1-0.2c-0.6,0-1.1,0.2-1.4,0.5s-0.5,0.9-0.5,1.6v0.5h-3.7v-0.6c0-2,0.4-3.5,1.2-4.5c0.8-1,2-1.5,3.6-1.5
		c0.9,0,1.7,0.1,2.3,0.3c0.7,0.2,1.4,0.5,2.2,0.9l0.1,0c0.1,0.1,0.3,0.2,0.4,0.2c0.1,0.1,0.3,0.1,0.4,0.2c0.5,0.3,1,0.5,1.3,0.7
		c0.3,0.1,0.7,0.2,1,0.2c0.6,0,1.1-0.2,1.4-0.6s0.5-0.9,0.5-1.7v-0.5h3.7v0.6c0,2.1-0.4,3.6-1.2,4.7c-0.8,1-2,1.6-3.6,1.6
		C423,680.2,422.5,680.2,422.1,680.1z M422.9,711.3c1.1-0.6,1.9-1.5,2.5-2.7c0.6-1.2,0.9-2.5,0.9-4v-10c0-1.5-0.3-2.9-0.9-4
		s-1.4-2.1-2.5-2.7c-1.1-0.6-2.3-0.9-3.7-0.9c-1.4,0-2.6,0.3-3.7,0.9c-1.1,0.6-1.9,1.5-2.5,2.7s-0.9,2.5-0.9,4v10
		c0,1.5,0.3,2.9,0.9,4c0.6,1.2,1.4,2.1,2.5,2.7c1.1,0.6,2.3,0.9,3.7,0.9C420.6,712.3,421.8,711.9,422.9,711.3z"/>
	<path class="st71" d="M437.9,682.6h4.8v34h-4.8V682.6z M440.2,682.6h19.5v4.5h-19.5V682.6z M440.2,697.5h16.9v4.5h-16.9V697.5z
		 M440.2,712.1h19.5v4.5h-19.5V712.1z"/>
	<path class="st71" d="M473.3,716.9c0,0-0.7-0.2-2.2-0.5s-2.8-0.8-4.1-1.4s-2.5-1.4-3.6-2.3l3-3.6c1.3,1.1,2.7,2,4.3,2.5
		c1.6,0.6,3.2,0.8,5.1,0.8c2.5,0,4.4-0.5,5.7-1.4c1.4-0.9,2-2.2,2-3.9v0c0-1.2-0.3-2.1-0.9-2.8c-0.6-0.7-1.4-1.2-2.4-1.5
		c-1-0.3-2.2-0.6-3.8-0.9c0,0-0.1,0-0.2,0s-0.1,0-0.2,0l-0.3-0.1c-2.3-0.4-4.1-0.8-5.5-1.3c-1.4-0.5-2.6-1.4-3.7-2.7
		c-1-1.3-1.5-3.2-1.5-5.5v0c0-2.1,0.5-3.9,1.4-5.4s2.3-2.6,4.1-3.4c1.8-0.8,4-1.2,6.5-1.2c1.2,0,2.4,0.1,3.6,0.4s2.3,0.7,3.5,1.2
		c1.1,0.5,2.3,1.2,3.4,2l-2.7,3.8c-1.3-1-2.6-1.7-3.9-2.1c-1.3-0.5-2.6-0.7-3.9-0.7c-2.3,0-4.1,0.5-5.4,1.4
		c-1.3,0.9-1.9,2.2-1.9,3.9v0c0,1.2,0.3,2.1,1,2.8c0.7,0.7,1.5,1.2,2.5,1.5c1,0.3,2.4,0.7,4.1,1c0.1,0,0.1,0,0.2,0
		c0.1,0,0.1,0,0.2,0c0.1,0,0.2,0,0.3,0c0.1,0,0.2,0,0.3,0c2.1,0.4,3.8,0.9,5.2,1.5c1.4,0.6,2.5,1.5,3.5,2.8s1.4,3,1.4,5.3v0
		c0,2.1-0.5,3.8-1.5,5.3s-2.4,2.6-4.3,3.4c-1.9,0.8-4.1,1.2-6.7,1.2C474.2,716.9,473.3,716.9,473.3,716.9z"/>
	<path class="st71" d="M501.4,682.6h4.8v34h-4.8V682.6z M503.7,682.6h19.5v4.5h-19.5V682.6z M503.7,697.5h16.9v4.5h-16.9V697.5z
		 M503.7,712.1h19.5v4.5h-19.5V712.1z"/>
	<path class="st71" d="M553.5,682.6h4.5v34h-4.6v-25.4l0.2,1.5l-8.4,19.2h-3.3l-8.4-18.8l0.2-2v25.4h-4.6v-34h4.5l10,22.4
		L553.5,682.6z"/>
	<path class="st71" d="M595.9,698.3v5.9c0,2.5-0.5,4.7-1.5,6.7s-2.4,3.4-4.2,4.5c-1.8,1.1-3.9,1.6-6.3,1.6c-2.4,0-4.5-0.5-6.3-1.5
		s-3.2-2.4-4.2-4.2s-1.5-3.9-1.5-6.3v-10c0-2.5,0.5-4.7,1.5-6.7s2.4-3.4,4.2-4.5c1.8-1.1,3.9-1.6,6.3-1.6c1.9,0,3.7,0.4,5.4,1.3
		c1.6,0.8,3,2,4.1,3.5c1.1,1.5,1.9,3.3,2.2,5.3h-5.2c-0.3-1.1-0.8-2.1-1.4-2.9c-0.7-0.8-1.5-1.4-2.4-1.9c-0.9-0.4-1.8-0.6-2.8-0.6
		c-1.4,0-2.6,0.3-3.7,1c-1.1,0.7-1.9,1.6-2.5,2.8c-0.6,1.2-0.9,2.6-0.9,4.2v10c0,1.5,0.3,2.7,0.9,3.8c0.6,1.1,1.4,2,2.5,2.6
		c1.1,0.6,2.3,0.9,3.8,0.9c1.4,0,2.6-0.3,3.7-0.9c1.1-0.6,1.9-1.5,2.5-2.7c0.6-1.2,0.9-2.6,0.9-4.3v-1.5h-6.9v-4.6H595.9z"/>
	<path class="st71" d="M602.7,682.6h4.8v34h-4.8V682.6z M605,682.6h19.5v4.5H605V682.6z M605,697.5h16.9v4.5H605V697.5z M605,712.1
		h19.5v4.5H605V712.1z"/>
	<path class="st71" d="M635.3,715.4c-1.8-1-3.2-2.5-4.2-4.4s-1.5-4.1-1.5-6.6v-9.6c0-2.5,0.5-4.7,1.5-6.6s2.4-3.4,4.2-4.4
		s3.9-1.6,6.3-1.6c2.4,0,4.5,0.5,6.3,1.6c1.8,1,3.2,2.5,4.2,4.4c1,1.9,1.5,4.1,1.5,6.6v9.6c0,2.5-0.5,4.7-1.5,6.6
		c-1,1.9-2.4,3.4-4.2,4.4c-1.8,1-3.9,1.6-6.3,1.6C639.2,716.9,637.1,716.4,635.3,715.4z M645.3,711.3c1.1-0.6,1.9-1.5,2.5-2.7
		c0.6-1.2,0.9-2.5,0.9-4v-10c0-1.5-0.3-2.9-0.9-4s-1.4-2.1-2.5-2.7c-1.1-0.6-2.3-0.9-3.7-0.9c-1.4,0-2.6,0.3-3.7,0.9
		c-1.1,0.6-1.9,1.5-2.5,2.7s-0.9,2.5-0.9,4v10c0,1.5,0.3,2.9,0.9,4c0.6,1.2,1.4,2.1,2.5,2.7c1.1,0.6,2.3,0.9,3.7,0.9
		C643,712.3,644.2,711.9,645.3,711.3z"/>
	<path class="st71" d="M655.7,682.6h24v4.5h-24V682.6z M665.3,685.4h4.8v31.2h-4.8V685.4z"/>
	<path class="st71" d="M682.4,682.6h4.8v34h-4.8V682.6z M684.7,682.6h19.5v4.5h-19.5V682.6z M684.7,697.5h16.9v4.5h-16.9V697.5z
		 M684.7,712.1h19.5v4.5h-19.5V712.1z"/>
	<path class="st71" d="M717.7,716.9c0,0-0.9-0.5-2.7-1.6c-1.8-1-3.2-2.5-4.1-4.4s-1.5-4.1-1.5-6.7V695c0-2.5,0.5-4.7,1.5-6.7
		s2.4-3.4,4.1-4.5c1.8-1.1,3.9-1.6,6.2-1.6c1.9,0,3.7,0.4,5.4,1.3c1.6,0.8,3,2,4.1,3.5s1.8,3.3,2.2,5.3h-4.9c-0.3-1.1-0.8-2-1.5-2.8
		c-0.7-0.8-1.5-1.5-2.4-1.9c-0.9-0.5-1.9-0.7-2.9-0.7c-1.4,0-2.6,0.3-3.6,1c-1,0.7-1.9,1.6-2.4,2.8c-0.6,1.2-0.9,2.6-0.9,4.2v9.3
		c0,1.6,0.3,3,0.9,4.2c0.6,1.2,1.4,2.2,2.4,2.8s2.3,1,3.6,1c1,0,2-0.2,2.9-0.6c0.9-0.4,1.7-1,2.4-1.9c0.7-0.8,1.2-1.8,1.5-2.9h4.9
		c-0.4,2-1.1,3.8-2.2,5.3c-1.1,1.5-2.5,2.7-4.1,3.5s-3.4,1.3-5.4,1.3C718.9,716.9,717.7,716.9,717.7,716.9z"/>
	<path class="st71" d="M738.8,682.6h4.3l16.6,26.3l-0.6,0.6v-26.9h4.7v34h-4.4L743,690.7l0.6-0.6v26.5h-4.7V682.6z"/>
	<path class="st71" d="M776.3,715.4c-1.8-1-3.2-2.5-4.2-4.4s-1.5-4.1-1.5-6.6v-9.6c0-2.5,0.5-4.7,1.5-6.6s2.4-3.4,4.2-4.4
		s3.9-1.6,6.3-1.6c2.4,0,4.5,0.5,6.3,1.6c1.8,1,3.2,2.5,4.2,4.4c1,1.9,1.5,4.1,1.5,6.6v9.6c0,2.5-0.5,4.7-1.5,6.6
		c-1,1.9-2.4,3.4-4.2,4.4c-1.8,1-3.9,1.6-6.3,1.6C780.2,716.9,778.1,716.4,776.3,715.4z M786.3,711.3c1.1-0.6,1.9-1.5,2.5-2.7
		c0.6-1.2,0.9-2.5,0.9-4v-10c0-1.5-0.3-2.9-0.9-4s-1.4-2.1-2.5-2.7c-1.1-0.6-2.3-0.9-3.7-0.9c-1.4,0-2.6,0.3-3.7,0.9
		c-1.1,0.6-1.9,1.5-2.5,2.7s-0.9,2.5-0.9,4v10c0,1.5,0.3,2.9,0.9,4c0.6,1.2,1.4,2.1,2.5,2.7c1.1,0.6,2.3,0.9,3.7,0.9
		C784,712.3,785.2,711.9,786.3,711.3z"/>
	<path class="st71" d="M801.3,682.6h4.8v34h-4.8V682.6z M803.7,712.1h19.4v4.5h-19.4V712.1z"/>
	<path class="st71" d="M832.8,715.4c-1.8-1-3.2-2.5-4.2-4.4s-1.5-4.1-1.5-6.6v-9.6c0-2.5,0.5-4.7,1.5-6.6s2.4-3.4,4.2-4.4
		s3.9-1.6,6.3-1.6c2.4,0,4.5,0.5,6.3,1.6c1.8,1,3.2,2.5,4.2,4.4c1,1.9,1.5,4.1,1.5,6.6v9.6c0,2.5-0.5,4.7-1.5,6.6
		c-1,1.9-2.4,3.4-4.2,4.4c-1.8,1-3.9,1.6-6.3,1.6C836.7,716.9,834.6,716.4,832.8,715.4z M842.8,711.3c1.1-0.6,1.9-1.5,2.5-2.7
		c0.6-1.2,0.9-2.5,0.9-4v-10c0-1.5-0.3-2.9-0.9-4s-1.4-2.1-2.5-2.7c-1.1-0.6-2.3-0.9-3.7-0.9c-1.4,0-2.6,0.3-3.7,0.9
		c-1.1,0.6-1.9,1.5-2.5,2.7s-0.9,2.5-0.9,4v10c0,1.5,0.3,2.9,0.9,4c0.6,1.2,1.4,2.1,2.5,2.7c1.1,0.6,2.3,0.9,3.7,0.9
		C840.5,712.3,841.7,711.9,842.8,711.3z"/>
	<path class="st71" d="M881,698.3v5.9c0,2.5-0.5,4.7-1.5,6.7s-2.4,3.4-4.2,4.5c-1.8,1.1-3.9,1.6-6.3,1.6c-2.4,0-4.5-0.5-6.3-1.5
		s-3.2-2.4-4.2-4.2s-1.5-3.9-1.5-6.3v-10c0-2.5,0.5-4.7,1.5-6.7s2.4-3.4,4.2-4.5c1.8-1.1,3.9-1.6,6.3-1.6c1.9,0,3.7,0.4,5.4,1.3
		c1.6,0.8,3,2,4.1,3.5c1.1,1.5,1.9,3.3,2.2,5.3h-5.2c-0.3-1.1-0.8-2.1-1.4-2.9c-0.7-0.8-1.5-1.4-2.4-1.9c-0.9-0.4-1.8-0.6-2.8-0.6
		c-1.4,0-2.6,0.3-3.7,1c-1.1,0.7-1.9,1.6-2.5,2.8c-0.6,1.2-0.9,2.6-0.9,4.2v10c0,1.5,0.3,2.7,0.9,3.8c0.6,1.1,1.4,2,2.5,2.6
		c1.1,0.6,2.3,0.9,3.8,0.9c1.4,0,2.6-0.3,3.7-0.9c1.1-0.6,1.9-1.5,2.5-2.7c0.6-1.2,0.9-2.6,0.9-4.3v-1.5h-6.9v-4.6H881z"/>
	<path class="st71" d="M892.5,716.6h-4.8v-34h4.8V716.6z"/>
	<path class="st71" d="M909.2,682.6h4.1l12.5,34h-5.1l-9.4-27.4l-9.4,27.4h-5.1L909.2,682.6z M902.4,704.6h17.9v4.5h-17.9V704.6z"/>
	<path class="st71" d="M937.2,682.6h4.8v34h-4.8V682.6z M939.6,682.6h19.5v4.5h-19.5V682.6z M939.6,697.5h16.9v4.5h-16.9V697.5z
		 M939.6,712.1h19.5v4.5h-19.5V712.1z"/>
	<path class="st71" d="M967.5,682.6h24v4.5h-24V682.6z M977.1,685.4h4.8v31.2h-4.8V685.4z"/>
	<path class="st71" d="M999.1,716.6h-4.8v-34h4.8V716.6z"/>
</g>
<g>
	<path class="st69" d="M245.6,640.6c0,47.9-22.9,71.8-68.7,71.8c-16.1,0-30.2-3.1-42.3-9.2v-20.9c14.7,8.1,28.7,12.2,42,12.2
		c32.1,0,48.1-17.1,48.1-51.2v-23h-0.5c-9.9,16.6-24.9,24.9-44.8,24.9c-16.2,0-29.3-5.8-39.1-17.4c-9.9-11.6-14.8-27.1-14.8-46.6
		c0-22.1,5.3-39.8,16-52.8c10.7-13.1,25.2-19.6,43.7-19.6c17.6,0,30.6,7,39.1,21.1h0.5V512h20.9V640.6z M224.7,583.4v-19.2
		c0-10.4-3.5-19.2-10.5-26.6c-7-7.4-15.7-11.1-26.2-11.1c-12.9,0-23,4.7-30.3,14.1c-7.3,9.4-10.9,22.5-10.9,39.4
		c0,14.5,3.5,26.1,10.5,34.8c7,8.7,16.3,13,27.8,13c11.7,0,21.2-4.2,28.6-12.5C221,607,224.7,596.4,224.7,583.4"/>
	<path class="st69" d="M382.2,582.4h-92c0.3,14.5,4.2,25.7,11.7,33.6c7.5,7.9,17.7,11.8,30.8,11.8c14.7,0,28.2-4.8,40.5-14.5v19.6
		c-11.5,8.3-26.6,12.5-45.4,12.5c-18.4,0-32.9-5.9-43.4-17.8c-10.5-11.8-15.8-28.5-15.8-50c0-20.3,5.7-36.8,17.2-49.6
		c11.5-12.8,25.8-19.2,42.8-19.2c17.1,0,30.2,5.5,39.6,16.5c9.3,11,14,26.3,14,45.9V582.4z M360.8,564.7c-0.1-12-3-21.4-8.7-28.1
		c-5.7-6.7-13.7-10.1-23.9-10.1c-9.8,0-18.2,3.5-25.1,10.6c-6.9,7-11.1,16.2-12.7,27.6H360.8z"/>
	<path class="st69" d="M457.8,645.4c-19.3,0-34.6-6.1-46.1-18.3c-11.5-12.2-17.2-28.3-17.2-48.4c0-21.9,6-39,17.9-51.3
		c12-12.3,28.1-18.5,48.5-18.5c19.4,0,34.6,6,45.5,17.9c10.9,12,16.4,28.6,16.4,49.8c0,20.8-5.9,37.4-17.6,50
		C493.3,639.1,477.6,645.4,457.8,645.4 M459.3,526.5c-13.4,0-24,4.6-31.8,13.7c-7.8,9.1-11.7,21.7-11.7,37.7
		c0,15.4,3.9,27.6,11.8,36.5c7.9,8.9,18.5,13.4,31.7,13.4c13.5,0,23.9-4.4,31.1-13.1c7.3-8.7,10.9-21.2,10.9-37.3
		c0-16.3-3.6-28.8-10.9-37.7C483.2,530.9,472.8,526.5,459.3,526.5"/>
	<path class="st70" d="M567,623.3h-0.5v43.2h-20.9V512h20.9v22.9h0.5c10.3-17.3,25.3-25.9,45.1-25.9c16.8,0,29.9,5.8,39.3,17.5
		c9.4,11.6,14.1,27.2,14.1,46.8c0,21.8-5.3,39.2-15.9,52.3c-10.6,13.1-25.1,19.6-43.5,19.6C589.2,645.1,576.2,637.8,567,623.3
		 M566.5,570.8V589c0,10.8,3.5,19.9,10.5,27.4c7,7.5,15.9,11.2,26.7,11.2c12.6,0,22.5-4.8,29.7-14.5c7.2-9.7,10.8-23.1,10.8-40.3
		c0-14.5-3.4-25.8-10.1-34c-6.7-8.2-15.8-12.3-27.2-12.3c-12.1,0-21.9,4.2-29.3,12.6C570.2,547.5,566.5,558.1,566.5,570.8"/>
	<rect x="688.4" y="512" class="st70" width="20.9" height="130.3"/>
	<path class="st70" d="M836.3,512l-43.8,65.9l43,64.4h-24.3l-25.6-42.3c-1.6-2.6-3.5-5.9-5.7-9.9h-0.5c-0.4,0.8-2.4,4.1-6,9.9
		l-26.1,42.3h-24.1l44.4-63.9L725.2,512h24.3l25.2,44.5c1.9,3.3,3.7,6.7,5.5,10.2h0.5l32.6-54.7H836.3z"/>
	<path class="st70" d="M955.1,582.4h-92c0.3,14.5,4.2,25.7,11.7,33.6c7.5,7.9,17.7,11.8,30.8,11.8c14.7,0,28.2-4.8,40.5-14.5v19.6
		c-11.5,8.3-26.6,12.5-45.4,12.5c-18.4,0-32.9-5.9-43.4-17.8c-10.5-11.8-15.8-28.5-15.8-50c0-20.3,5.7-36.8,17.2-49.6
		c11.5-12.8,25.8-19.2,42.8-19.2c17.1,0,30.2,5.5,39.6,16.5c9.3,11,14,26.3,14,45.9V582.4z M933.7,564.7c-0.1-12-3-21.4-8.7-28.1
		c-5.7-6.7-13.7-10.1-23.9-10.1c-9.8,0-18.2,3.5-25.1,10.6c-6.9,7-11.1,16.2-12.7,27.6H933.7z"/>
	<rect x="976.2" y="453.5" class="st70" width="20.9" height="188.9"/>
	<rect x="689.2" y="469.9" class="st70" width="19.5" height="19.5"/>
</g>
</svg>
