<?xml version="1.0" encoding="utf-8"?>
<!-- Generator: Adobe Illustrator 22.0.1, SVG Export Plug-In . SVG Version: 6.00 Build 0)  -->
<svg version="1.1" id="Layer_1" xmlns="http://www.w3.org/2000/svg" xmlns:xlink="http://www.w3.org/1999/xlink" x="0px" y="0px"
	 viewBox="0 0 755.9 718.7" style="enable-background:new 0 0 755.9 718.7;" xml:space="preserve">
<style type="text/css">
	.st0{fill:url(#SVGID_1_);}
	.st1{fill:url(#SVGID_2_);}
	.st2{clip-path:url(#SVGID_4_);}
	.st3{clip-path:url(#SVGID_8_);fill:#59595B;}
	.st4{clip-path:url(#SVGID_8_);fill:#1979BE;}
	.st5{fill:none;stroke:#59585A;stroke-miterlimit:10;}
	.st6{fill:none;}
	.st7{fill:none;stroke:#59595B;stroke-width:1.031;stroke-miterlimit:10;}
	.st8{fill:#005A95;}
	.st9{fill:#59595B;}
	.st10{fill:#E2B828;}
	.st11{fill:url(#SVGID_9_);}
	.st12{fill:url(#SVGID_10_);}
	.st13{fill:url(#SVGID_11_);}
	.st14{fill:url(#SVGID_12_);}
	.st15{fill:url(#SVGID_13_);}
	.st16{fill:none;stroke:#E7C253;stroke-width:0.301;stroke-miterlimit:10;}
	.st17{fill:url(#SVGID_14_);}
	.st18{fill:url(#SVGID_15_);}
	.st19{fill:url(#SVGID_16_);}
	.st20{fill:url(#SVGID_17_);}
	.st21{fill:url(#SVGID_18_);}
	.st22{fill:url(#SVGID_19_);}
	.st23{fill:url(#SVGID_20_);}
	.st24{fill:url(#SVGID_21_);}
	.st25{fill:url(#SVGID_22_);}
	.st26{fill:url(#SVGID_23_);}
	.st27{fill:none;stroke:#E7C253;stroke-width:0.1651;stroke-miterlimit:10;}
	.st28{fill:#8A3929;}
	.st29{fill:#584753;}
	.st30{fill:none;stroke:#000000;stroke-width:0.601;stroke-miterlimit:10;}
	.st31{fill:#9B6C40;}
	.st32{fill:#5E873B;}
	.st33{fill:#2C4E5C;}
	.st34{fill:#605E2B;}
	.st35{fill:#781B58;}
	.st36{fill:#8F4433;}
	.st37{fill:#56656E;}
	.st38{clip-path:url(#SVGID_25_);fill:url(#SVGID_26_);}
	.st39{clip-path:url(#SVGID_28_);fill:url(#SVGID_29_);}
	.st40{clip-path:url(#SVGID_31_);fill:url(#SVGID_32_);}
	.st41{clip-path:url(#SVGID_34_);fill:url(#SVGID_35_);}
	.st42{clip-path:url(#SVGID_37_);fill:url(#SVGID_38_);}
	.st43{clip-path:url(#SVGID_40_);fill:url(#SVGID_41_);}
	.st44{clip-path:url(#SVGID_43_);fill:url(#SVGID_44_);}
	.st45{fill:url(#SVGID_47_);}
	.st46{fill:url(#SVGID_48_);}
	.st47{fill:url(#SVGID_49_);}
	.st48{fill:url(#SVGID_50_);}
	.st49{fill:url(#SVGID_51_);}
	.st50{fill:url(#SVGID_52_);}
	.st51{fill:url(#SVGID_53_);}
	.st52{fill:url(#SVGID_54_);}
	.st53{fill:url(#SVGID_55_);}
	.st54{fill:url(#SVGID_56_);}
	.st55{fill:url(#SVGID_57_);}
	.st56{fill:url(#SVGID_58_);}
	.st57{fill:url(#SVGID_59_);}
	.st58{fill:url(#SVGID_60_);}
	.st59{fill:url(#SVGID_61_);}
	.st60{fill:url(#SVGID_62_);}
	.st61{fill:url(#SVGID_63_);}
	.st62{fill:url(#SVGID_64_);}
	.st63{fill:url(#SVGID_65_);}
	.st64{fill:url(#SVGID_66_);}
	.st65{fill:url(#SVGID_67_);}
	.st66{fill:url(#SVGID_68_);}
	.st67{fill:url(#SVGID_69_);}
	.st68{fill:url(#SVGID_70_);}
	.st69{fill:url(#SVGID_71_);}
	.st70{fill:url(#SVGID_72_);}
	.st71{fill:url(#SVGID_73_);}
	.st72{fill:url(#SVGID_74_);}
	.st73{fill:#628D3D;}
	.st74{fill:url(#SVGID_75_);}
	.st75{fill:url(#SVGID_76_);}
	.st76{fill:url(#SVGID_77_);}
	.st77{fill:url(#SVGID_78_);}
	.st78{fill:url(#SVGID_79_);}
	.st79{fill:url(#SVGID_80_);}
	.st80{fill:url(#SVGID_81_);}
	.st81{fill:url(#SVGID_82_);}
	.st82{fill:url(#SVGID_83_);}
	.st83{fill:url(#SVGID_84_);}
	.st84{fill:url(#SVGID_85_);}
	.st85{fill:url(#SVGID_86_);}
	.st86{fill:url(#SVGID_87_);}
	.st87{fill:url(#SVGID_88_);}
	.st88{fill:url(#SVGID_89_);}
	.st89{fill:url(#SVGID_90_);}
	.st90{fill:url(#SVGID_91_);}
	.st91{fill:url(#SVGID_92_);}
	.st92{fill:url(#SVGID_93_);}
	.st93{fill:url(#SVGID_94_);}
	.st94{fill:url(#SVGID_95_);}
	.st95{fill:url(#SVGID_96_);}
	.st96{fill:url(#SVGID_97_);}
	.st97{fill:url(#SVGID_98_);}
	.st98{fill:url(#SVGID_99_);}
	.st99{fill:url(#SVGID_100_);}
	.st100{fill:url(#SVGID_101_);}
	.st101{fill:url(#SVGID_102_);}
	.st102{fill:url(#SVGID_103_);}
	.st103{fill:url(#SVGID_104_);}
	.st104{fill:url(#SVGID_105_);}
	.st105{fill:url(#SVGID_106_);}
	.st106{fill:url(#SVGID_107_);}
	.st107{fill:url(#SVGID_108_);}
	.st108{fill:url(#SVGID_109_);}
	.st109{fill:url(#SVGID_110_);}
	.st110{fill:url(#SVGID_111_);}
	.st111{fill:url(#SVGID_112_);}
	.st112{fill:url(#SVGID_113_);}
	.st113{fill:url(#SVGID_114_);}
	.st114{fill:url(#SVGID_115_);}
	.st115{fill:url(#SVGID_116_);}
	.st116{fill:url(#SVGID_117_);}
	.st117{fill:url(#SVGID_118_);}
	.st118{fill:url(#SVGID_119_);}
	.st119{fill:url(#SVGID_120_);}
	.st120{fill:url(#SVGID_121_);}
	.st121{fill:url(#SVGID_122_);}
	.st122{fill:url(#SVGID_123_);}
	.st123{fill:url(#SVGID_124_);}
	.st124{fill:url(#SVGID_125_);}
	.st125{fill:url(#SVGID_126_);}
	.st126{fill:url(#SVGID_127_);}
	.st127{fill:url(#SVGID_128_);}
	.st128{fill:url(#SVGID_129_);}
	.st129{fill:url(#SVGID_130_);}
	.st130{fill:url(#SVGID_131_);}
	.st131{fill:url(#SVGID_132_);}
	.st132{fill:url(#SVGID_133_);}
	.st133{fill:url(#SVGID_134_);}
	.st134{fill:url(#SVGID_135_);}
	.st135{fill:url(#SVGID_136_);}
	.st136{fill:url(#SVGID_137_);}
	.st137{fill:url(#SVGID_138_);}
	.st138{fill:url(#SVGID_139_);}
	.st139{fill:url(#SVGID_140_);}
	.st140{fill:url(#SVGID_141_);}
	.st141{fill:url(#SVGID_142_);}
	.st142{fill:url(#SVGID_143_);}
	.st143{fill:url(#SVGID_144_);}
	.st144{fill:url(#SVGID_145_);}
	.st145{fill:url(#SVGID_146_);}
	.st146{fill:url(#SVGID_147_);}
	.st147{fill:url(#SVGID_148_);}
	.st148{fill:url(#SVGID_149_);}
	.st149{fill:url(#SVGID_150_);}
	.st150{fill:url(#SVGID_151_);}
	.st151{fill:url(#SVGID_152_);}
	.st152{fill:url(#SVGID_153_);}
	.st153{fill:url(#SVGID_154_);}
	.st154{fill:url(#SVGID_155_);}
	.st155{fill:url(#SVGID_156_);}
	.st156{fill:url(#SVGID_157_);}
	.st157{fill:url(#SVGID_158_);}
	.st158{fill:url(#SVGID_159_);}
	.st159{fill:url(#SVGID_160_);}
	.st160{fill:url(#SVGID_161_);}
	.st161{fill:url(#SVGID_162_);}
	.st162{fill:url(#SVGID_163_);}
	.st163{fill:url(#SVGID_164_);}
	.st164{fill:url(#SVGID_165_);}
	.st165{fill:url(#SVGID_166_);}
	.st166{fill:url(#SVGID_167_);}
	.st167{fill:url(#SVGID_168_);}
	.st168{fill:url(#SVGID_169_);}
	.st169{fill:url(#SVGID_170_);}
	.st170{fill:url(#SVGID_171_);}
	.st171{fill:url(#SVGID_172_);}
	.st172{fill:url(#SVGID_173_);}
	.st173{fill:url(#SVGID_174_);}
	.st174{fill:url(#SVGID_175_);}
	.st175{fill:url(#SVGID_176_);}
	.st176{fill:url(#SVGID_177_);}
	.st177{fill:url(#SVGID_178_);}
	.st178{fill:url(#SVGID_179_);}
	.st179{fill:url(#SVGID_180_);}
	.st180{fill:url(#SVGID_181_);}
	.st181{fill:url(#SVGID_182_);}
	.st182{fill:url(#SVGID_183_);}
	.st183{fill:url(#SVGID_184_);}
	.st184{fill:url(#SVGID_185_);}
	.st185{fill:url(#SVGID_186_);}
	.st186{fill:url(#SVGID_187_);}
	.st187{fill:url(#SVGID_188_);}
	.st188{fill:url(#SVGID_189_);}
	.st189{fill:url(#SVGID_190_);}
	.st190{fill:url(#SVGID_191_);}
	.st191{fill:url(#SVGID_192_);}
	.st192{fill:url(#SVGID_193_);}
	.st193{fill:url(#SVGID_194_);}
	.st194{fill:url(#SVGID_195_);}
	.st195{fill:url(#SVGID_196_);}
	.st196{fill:url(#SVGID_197_);}
	.st197{fill:url(#SVGID_198_);}
	.st198{fill:#FFFFFF;}
	.st199{fill:url(#SVGID_199_);}
	.st200{fill:url(#SVGID_200_);}
	.st201{fill:url(#SVGID_201_);}
	.st202{fill:url(#SVGID_202_);}
	.st203{fill:url(#SVGID_203_);}
	.st204{fill:url(#SVGID_204_);}
	.st205{fill:url(#SVGID_205_);}
	.st206{fill:url(#SVGID_206_);}
	.st207{fill:url(#SVGID_207_);}
	.st208{fill:url(#SVGID_208_);}
	.st209{fill:url(#SVGID_209_);}
	.st210{fill:#FFFFFF;stroke:#605E2B;stroke-width:2;stroke-miterlimit:10;}
	.st211{fill:url(#SVGID_210_);}
	.st212{fill:url(#SVGID_211_);}
	.st213{clip-path:url(#SVGID_213_);fill:#FFFFFF;}
	.st214{clip-path:url(#SVGID_213_);fill:#FFFFFF;stroke:#4A481D;stroke-width:1.2121;stroke-miterlimit:10;}
	.st215{fill:#FFFFFF;stroke:#605E2B;stroke-width:1.0924;stroke-miterlimit:10;}
	.st216{fill:url(#SVGID_214_);}
	.st217{fill:url(#SVGID_215_);}
	.st218{clip-path:url(#SVGID_217_);fill:#FFFFFF;}
	.st219{clip-path:url(#SVGID_217_);fill:#FFFFFF;stroke:#4A481D;stroke-width:0.6621;stroke-miterlimit:10;}
	.st220{fill:url(#SVGID_218_);}
	.st221{fill:url(#SVGID_219_);}
	.st222{fill:url(#SVGID_220_);}
	.st223{fill:url(#SVGID_221_);}
	.st224{fill:url(#SVGID_222_);}
	.st225{fill:url(#SVGID_223_);}
	.st226{fill:url(#SVGID_224_);}
	.st227{fill:url(#SVGID_225_);}
	.st228{fill:url(#SVGID_226_);}
	.st229{fill:url(#SVGID_227_);}
	.st230{fill:url(#SVGID_228_);}
	.st231{fill:url(#SVGID_229_);}
	.st232{fill:url(#SVGID_230_);}
	.st233{fill:none;stroke:#FFFFFF;stroke-width:7.6325;stroke-miterlimit:10;}
	.st234{fill:#04303E;}
	.st235{fill:#0D3644;}
	.st236{fill:#224755;}
	.st237{fill:url(#SVGID_231_);}
	.st238{fill:url(#SVGID_232_);}
	.st239{fill:url(#SVGID_233_);}
	.st240{fill:none;stroke:#FFFFFF;stroke-width:3.9106;stroke-miterlimit:10;}
</style>
<linearGradient id="SVGID_1_" gradientUnits="userSpaceOnUse" x1="425.0028" y1="442.7116" x2="546.8038" y2="558.8032">
	<stop  offset="0" style="stop-color:#4A6876"/>
	<stop  offset="0.5393" style="stop-color:#0A3542"/>
	<stop  offset="1" style="stop-color:#000000"/>
</linearGradient>
<path class="st0" d="M411.1,514.9L411.1,514.9c0-13.8,10.1-25.1,22.5-25.1h134c12.5,0,22.5,11.2,22.5,25.1
	c0,13.8-10.1,25.1-22.5,25.1h-134C421.2,539.9,411.1,528.7,411.1,514.9"/>
<g>
	<path class="st198" d="M434,528.9v-28.1h8.1c10.4,0,15.5,4.6,15.5,13.7c0,4.3-1.4,7.8-4.3,10.5s-6.7,4-11.6,4H434z M438.7,504.7
		v20.2h3.7c3.3,0,5.8-0.9,7.7-2.7c1.8-1.8,2.7-4.4,2.7-7.6c0-6.6-3.4-9.9-10.2-9.9H438.7z"/>
	<path class="st198" d="M477.7,520.1H464c0.1,1.9,0.6,3.3,1.7,4.3c1.1,1,2.6,1.5,4.5,1.5c2.1,0,4.1-0.6,5.9-1.9v3.7
		c-1.8,1.2-4.2,1.7-7.3,1.7c-3,0-5.3-0.9-7-2.7c-1.7-1.8-2.5-4.4-2.5-7.7c0-3.1,0.9-5.7,2.8-7.6c1.8-2,4.1-3,6.9-3s4.9,0.9,6.4,2.6
		c1.5,1.8,2.3,4.2,2.3,7.4V520.1z M473.3,516.9c0-1.6-0.4-2.9-1.2-3.8c-0.8-0.9-1.8-1.4-3.1-1.4c-1.3,0-2.4,0.5-3.3,1.4
		c-0.9,1-1.5,2.2-1.7,3.7H473.3z"/>
	<path class="st198" d="M479.2,528.3V524c1.7,1.3,3.6,1.9,5.6,1.9c2.7,0,4.1-0.8,4.1-2.4c0-0.5-0.1-0.8-0.4-1.2
		c-0.2-0.3-0.6-0.6-1-0.9s-0.9-0.5-1.4-0.7c-0.5-0.2-1.1-0.4-1.8-0.7c-0.8-0.3-1.6-0.7-2.2-1c-0.7-0.4-1.2-0.8-1.6-1.2
		c-0.4-0.5-0.8-1-1-1.6c-0.2-0.6-0.3-1.3-0.3-2.1c0-1,0.2-1.8,0.7-2.6c0.5-0.7,1.1-1.4,1.8-1.9c0.8-0.5,1.6-0.9,2.6-1.1
		c1-0.3,2-0.4,3-0.4c1.9,0,3.5,0.3,5,0.8v4c-1.4-1-3-1.5-4.9-1.5c-0.6,0-1.1,0.1-1.6,0.2c-0.5,0.1-0.9,0.3-1.2,0.5
		c-0.3,0.2-0.6,0.5-0.8,0.8c-0.2,0.3-0.3,0.6-0.3,1c0,0.4,0.1,0.8,0.3,1.1c0.2,0.3,0.5,0.6,0.8,0.8c0.4,0.2,0.8,0.4,1.3,0.6
		s1.1,0.4,1.7,0.6c0.9,0.4,1.6,0.7,2.3,1.1c0.7,0.4,1.3,0.8,1.8,1.2c0.5,0.5,0.9,1,1.1,1.6c0.3,0.6,0.4,1.3,0.4,2.2
		c0,1-0.2,1.9-0.7,2.7c-0.5,0.8-1.1,1.4-1.9,1.9c-0.8,0.5-1.7,0.9-2.7,1.1c-1,0.2-2.1,0.4-3.2,0.4
		C482.7,529.4,480.8,529,479.2,528.3z"/>
	<path class="st198" d="M514.4,528.9h-5.8l-7.8-9.6h-0.1v9.6h-4.6v-29.7h4.6V518h0.1l7.4-9.2h5.5l-8.3,9.7L514.4,528.9z"/>
	<path class="st198" d="M526.2,528.7c-0.9,0.4-2.1,0.7-3.5,0.7c-3.9,0-5.8-1.9-5.8-5.6v-11.4h-3.4v-3.6h3.4v-4.6l4.5-1.3v5.9h4.8
		v3.6h-4.8v10c0,1.2,0.2,2,0.6,2.5s1.2,0.8,2.2,0.8c0.8,0,1.4-0.2,2-0.7V528.7z"/>
	<path class="st198" d="M537.4,529.4c-3.1,0-5.6-0.9-7.4-2.8c-1.8-1.9-2.8-4.4-2.8-7.5c0-3.4,1-6,2.9-7.9c1.9-1.9,4.5-2.8,7.8-2.8
		c3.1,0,5.6,0.9,7.3,2.8c1.8,1.8,2.6,4.4,2.6,7.7c0,3.2-0.9,5.8-2.8,7.7C543.2,528.4,540.6,529.4,537.4,529.4z M537.6,512
		c-1.8,0-3.2,0.6-4.2,1.9c-1,1.2-1.5,3-1.5,5.1c0,2.1,0.5,3.8,1.6,5s2.4,1.8,4.2,1.8c1.8,0,3.2-0.6,4.1-1.8s1.4-2.9,1.4-5.1
		c0-2.2-0.5-3.9-1.4-5.1C540.8,512.6,539.4,512,537.6,512z"/>
	<path class="st198" d="M555.5,525.9L555.5,525.9l-0.1,12.2h-4.5v-29.3h4.5v3.5h0.1c1.6-2.7,3.8-4,6.8-4c2.5,0,4.5,0.9,6,2.7
		c1.4,1.8,2.1,4.2,2.1,7.2c0,3.3-0.8,6-2.4,8c-1.6,2-3.8,3-6.6,3C558.9,529.3,556.9,528.2,555.5,525.9z M555.4,518v2.5
		c0,1.5,0.5,2.7,1.4,3.7s2.1,1.5,3.6,1.5c1.7,0,3-0.7,4-2s1.4-3.1,1.4-5.5c0-2-0.4-3.5-1.3-4.6c-0.9-1.1-2.1-1.7-3.6-1.7
		c-1.6,0-2.9,0.6-3.9,1.7C555.9,514.8,555.4,516.3,555.4,518z"/>
</g>
<g>
	<path class="st9" d="M223.4,469.5c0,22.4-10.7,33.6-32.2,33.6c-7.5,0-14.1-1.4-19.8-4.3v-9.8c6.9,3.8,13.4,5.7,19.7,5.7
		c15,0,22.5-8,22.5-23.9v-10.7h-0.2c-4.6,7.8-11.6,11.7-21,11.7c-7.6,0-13.7-2.7-18.3-8.1c-4.6-5.4-6.9-12.7-6.9-21.8
		c0-10.4,2.5-18.6,7.5-24.7c5-6.1,11.8-9.2,20.5-9.2c8.2,0,14.3,3.3,18.3,9.9h0.2v-8.5h9.8V469.5z M213.6,442.8v-9
		c0-4.8-1.6-9-4.9-12.4c-3.3-3.5-7.4-5.2-12.2-5.2c-6,0-10.8,2.2-14.2,6.6c-3.4,4.4-5.1,10.5-5.1,18.4c0,6.8,1.6,12.2,4.9,16.3
		c3.3,4.1,7.6,6.1,13,6.1c5.5,0,9.9-1.9,13.4-5.8C211.9,453.8,213.6,448.8,213.6,442.8"/>
	<path class="st9" d="M287.3,442.3h-43.1c0.2,6.8,2,12,5.5,15.7c3.5,3.7,8.3,5.5,14.4,5.5c6.9,0,13.2-2.3,18.9-6.8v9.2
		c-5.4,3.9-12.4,5.8-21.3,5.8c-8.6,0-15.4-2.8-20.3-8.3c-4.9-5.5-7.4-13.3-7.4-23.4c0-9.5,2.7-17.2,8.1-23.2c5.4-6,12.1-9,20-9
		c8,0,14.2,2.6,18.5,7.7c4.4,5.2,6.5,12.3,6.5,21.5V442.3z M277.3,434c0-5.6-1.4-10-4.1-13.2c-2.7-3.1-6.4-4.7-11.2-4.7
		c-4.6,0-8.5,1.6-11.7,4.9c-3.2,3.3-5.2,7.6-6,12.9H277.3z"/>
	<path class="st9" d="M322.6,471.8c-9,0-16.2-2.8-21.6-8.5c-5.4-5.7-8.1-13.3-8.1-22.7c0-10.2,2.8-18.2,8.4-24
		c5.6-5.8,13.2-8.6,22.7-8.6c9.1,0,16.2,2.8,21.3,8.4c5.1,5.6,7.7,13.4,7.7,23.3c0,9.7-2.7,17.5-8.2,23.4
		C339.3,468.8,331.9,471.8,322.6,471.8 M323.4,416.1c-6.3,0-11.2,2.1-14.9,6.4c-3.7,4.3-5.5,10.2-5.5,17.7c0,7.2,1.8,12.9,5.5,17.1
		c3.7,4.2,8.6,6.3,14.8,6.3c6.3,0,11.2-2,14.6-6.1c3.4-4.1,5.1-9.9,5.1-17.4c0-7.6-1.7-13.5-5.1-17.6
		C334.5,418.2,329.7,416.1,323.4,416.1"/>
	<path class="st9" d="M373.7,461.4h-0.2v26.9h-9.8v-79h9.8V420h0.2c4.8-8.1,11.8-12.1,21.1-12.1c7.9,0,14,2.7,18.4,8.2
		c4.4,5.4,6.6,12.7,6.6,21.9c0,10.2-2.5,18.3-7.4,24.5c-5,6.1-11.8,9.2-20.4,9.2C384.1,471.6,378,468.2,373.7,461.4 M373.5,436.9
		v8.5c0,5,1.6,9.3,4.9,12.8c3.3,3.5,7.4,5.3,12.5,5.3c5.9,0,10.5-2.3,13.9-6.8c3.4-4.5,5-10.8,5-18.8c0-6.8-1.6-12.1-4.7-15.9
		c-3.1-3.8-7.4-5.8-12.7-5.8c-5.7,0-10.2,2-13.7,5.9C375.2,426,373.5,430.9,373.5,436.9"/>
	<rect x="430.6" y="409.4" class="st9" width="9.8" height="61"/>
	<path class="st9" d="M499.8,409.4l-20.5,30.8l20.1,30.1H488l-12-19.8c-0.8-1.2-1.6-2.8-2.7-4.6h-0.2c-0.2,0.4-1.1,1.9-2.8,4.6
		l-12.2,19.8h-11.3l20.8-29.9l-19.9-31.1h11.4l11.8,20.8c0.9,1.5,1.7,3.1,2.6,4.8h0.2l15.2-25.6H499.8z"/>
	<path class="st9" d="M555.3,442.3h-43.1c0.2,6.8,2,12,5.5,15.7c3.5,3.7,8.3,5.5,14.4,5.5c6.9,0,13.2-2.3,18.9-6.8v9.2
		c-5.4,3.9-12.4,5.8-21.3,5.8c-8.6,0-15.4-2.8-20.3-8.3c-4.9-5.5-7.4-13.3-7.4-23.4c0-9.5,2.7-17.2,8.1-23.2c5.4-6,12.1-9,20-9
		c8,0,14.2,2.6,18.5,7.7c4.4,5.2,6.5,12.3,6.5,21.5V442.3z M545.3,434c0-5.6-1.4-10-4.1-13.2c-2.7-3.1-6.4-4.7-11.2-4.7
		c-4.6,0-8.5,1.6-11.7,4.9c-3.2,3.3-5.2,7.6-6,12.9H545.3z"/>
	<rect x="565.2" y="388" class="st9" width="9.8" height="82.3"/>
	<rect x="430.9" y="388.6" class="st9" width="9.1" height="9.1"/>
</g>
<linearGradient id="SVGID_2_" gradientUnits="userSpaceOnUse" x1="272.4375" y1="218.8076" x2="406.6596" y2="346.738">
	<stop  offset="0" style="stop-color:#4A6876"/>
	<stop  offset="0.5393" style="stop-color:#0A3542"/>
	<stop  offset="1" style="stop-color:#000000"/>
</linearGradient>
<rect x="282.4" y="227.8" class="st1" width="18.2" height="18.2"/>
<linearGradient id="SVGID_4_" gradientUnits="userSpaceOnUse" x1="290.2219" y1="200.1485" x2="424.444" y2="328.0789">
	<stop  offset="0" style="stop-color:#4A6876"/>
	<stop  offset="0.5393" style="stop-color:#0A3542"/>
	<stop  offset="1" style="stop-color:#000000"/>
</linearGradient>
<rect x="300.6" y="209.6" style="fill:url(#SVGID_4_);" width="18.2" height="18.2"/>
<linearGradient id="SVGID_6_" gradientUnits="userSpaceOnUse" x1="281.8822" y1="212.5664" x2="416.1043" y2="340.4968">
	<stop  offset="0" style="stop-color:#4A6876"/>
	<stop  offset="0.5393" style="stop-color:#0A3542"/>
	<stop  offset="1" style="stop-color:#000000"/>
</linearGradient>
<circle style="fill:url(#SVGID_6_);" cx="365.3" cy="292.1" r="79.7"/>
<g>
	<polygon class="st233" points="368,275.3 314.1,295.1 341.7,337.3 401.7,309.4 	"/>
	<polygon class="st234" points="368,275.3 314.1,295.1 341.7,337.3 401.7,309.4 	"/>
</g>
<g>
	<polygon class="st233" points="371.3,268.5 319.6,282.3 349.3,321.8 408.4,295.2 	"/>
	<polygon class="st235" points="371.3,268.5 319.6,282.3 349.3,321.8 408.4,295.2 	"/>
</g>
<g>
	<polygon class="st233" points="375.4,257.5 324.3,271 354.9,305.3 412.8,282.3 	"/>
	<polygon class="st236" points="375.4,257.5 324.3,271 354.9,305.3 412.8,282.3 	"/>
</g>
<g>
	<polygon class="st233" points="379.2,246.9 329.6,259.3 361.2,288.9 417.8,269.2 	"/>
	<polygon class="st198" points="379.2,246.9 329.6,259.3 361.2,288.9 417.8,269.2 	"/>
</g>
</svg>
