<?xml version="1.0" encoding="UTF-8" standalone="no"?>
<!-- Created with Inkscape (http://www.inkscape.org/) -->

<svg
   xmlns:dc="http://purl.org/dc/elements/1.1/"
   xmlns:cc="http://creativecommons.org/ns#"
   xmlns:rdf="http://www.w3.org/1999/02/22-rdf-syntax-ns#"
   xmlns:svg="http://www.w3.org/2000/svg"
   xmlns="http://www.w3.org/2000/svg"
   xmlns:sodipodi="http://sodipodi.sourceforge.net/DTD/sodipodi-0.dtd"
   xmlns:inkscape="http://www.inkscape.org/namespaces/inkscape"
   width="16.004456"
   height="16.003906"
   id="svg41731"
   version="1.1"
   inkscape:version="0.92.3 (2405546, 2018-03-11)"
   sodipodi:docname="geopixel_tile.svg">
  <defs
     id="defs41733" />
  <sodipodi:namedview
     id="base"
     pagecolor="#ffffff"
     bordercolor="#666666"
     borderopacity="1.0"
     inkscape:pageopacity="0.0"
     inkscape:pageshadow="2"
     inkscape:zoom="15.839192"
     inkscape:cx="20.316584"
     inkscape:cy="11.697535"
     inkscape:document-units="px"
     inkscape:current-layer="layer1"
     showgrid="false"
     fit-margin-top="0"
     fit-margin-left="0"
     fit-margin-right="0"
     fit-margin-bottom="0"
     inkscape:window-width="1920"
     inkscape:window-height="1017"
     inkscape:window-x="-8"
     inkscape:window-y="-8"
     inkscape:window-maximized="1" />
  <metadata
     id="metadata41736">
    <rdf:RDF>
      <cc:Work
         rdf:about="">
        <dc:format>image/svg+xml</dc:format>
        <dc:type
           rdf:resource="http://purl.org/dc/dcmitype/StillImage" />
        <dc:title></dc:title>
      </cc:Work>
    </rdf:RDF>
  </metadata>
  <g
     inkscape:label="Layer 1"
     inkscape:groupmode="layer"
     id="layer1"
     transform="translate(-506.28125,-512.93359)">
    <g
       id="g90"
       transform="matrix(0.0401441,0,0,0.0401441,492.78597,508.17517)">
      <path
         class="st32"
         d="m 643.3,175.3 c -3,-12.9 -6.9,-23.9 -11.6,-32.5 -14.8,-3.7 -30.6,-5.9 -46.7,-6.6 2.8,8.9 4.9,20.2 6.3,32.7 19.5,0.9 36.9,3.2 52,6.4"
         id="path4"
         inkscape:connector-curvature="0"
         style="fill:#4ba1d9" />
      <path
         class="st33"
         d="m 533.8,138.8 c -17,2.6 -33.3,7 -48.1,13.2 -2.6,7.3 -5.1,17.2 -7.5,29.9 15.1,-4.9 33.5,-9 55.1,-11.4 0.3,-11.2 0.5,-21.8 0.5,-31.7"
         id="path6"
         inkscape:connector-curvature="0"
         style="fill:#8eb5e0" />
      <path
         class="st34"
         d="m 471.9,227.3 c -1.3,11.8 -2.4,24.9 -3.5,39.2 -0.5,6.5 -0.9,12.9 -1.1,19.2 18.4,-2 39.2,-3.5 61,-4.4 1.3,-20.8 2.5,-41.8 3.4,-62 -19.5,1.5 -40.8,4.1 -59.8,8"
         id="path8"
         inkscape:connector-curvature="0"
         style="fill:#c0d965" />
      <path
         class="st35"
         d="m 695,279.3 c 0,2.2 -0.1,4.4 -0.3,6.6 10.9,1.5 20.2,3.3 27.1,5.4 0.2,-2.7 0.3,-5.4 0.4,-8.1 0.4,-14.5 -0.3,-27.8 -2,-40 -7.1,-4.5 -16.5,-8.2 -27.1,-11.3 1.8,15.5 2.3,31.5 1.9,47.4"
         id="path10"
         inkscape:connector-curvature="0"
         style="fill:#4ca447" />
      <path
         class="st36"
         d="m 466.7,343.5 c 0.5,18.8 1.6,35.2 2.9,48.5 17,3.2 33.4,5.5 49.2,7.1 1.6,-16.4 3.2,-34.5 4.8,-53.8 -18.4,-0.4 -37.5,-1 -56.9,-1.8"
         id="path12"
         inkscape:connector-curvature="0"
         style="fill:#e6f3e8" />
      <path
         class="st37"
         d="m 686.9,342.9 c -4.1,17.6 -9.8,34.6 -17.3,49.4 10.8,-2.5 19.1,-5.2 24.3,-7.7 8.1,-12.6 14.8,-27.3 19.6,-43.8 -6.5,0.7 -15.5,1.4 -26.6,2.1"
         id="path14"
         inkscape:connector-curvature="0"
         style="fill:#5da1d4" />
      <path
         class="st38"
         d="m 593.4,274.8 c 0,1.7 0,3.4 -0.1,5.3 20.3,0.1 40.1,0.7 58.1,1.8 0.1,-1.5 0.1,-3.1 0.1,-4.6 0.5,-18.8 0,-37.1 -1.3,-54 -20,-2.8 -40.1,-4.3 -56.1,-5 0.6,22.2 0,43 -0.7,56.5"
         id="path16"
         inkscape:connector-curvature="0"
         style="fill:#51a0d8" />
      <path
         class="st39"
         d="m 576.1,401.8 c 19.1,-0.1 36.6,-1.1 52,-2.8 7.1,-17.1 12.3,-35.8 15.9,-54.3 -17.1,0.5 -36.2,0.9 -56.9,1 -2.7,19.2 -6.4,38.9 -11,56.1"
         id="path18"
         inkscape:connector-curvature="0"
         style="fill:#c0da65" />
      <path
         class="st40"
         d="m 528.2,281.3 c -21.7,0.9 -42.5,2.4 -61,4.4 -1,20.9 -1,40.4 -0.5,57.8 19.4,0.8 38.4,1.4 56.9,1.8 1.6,-20.5 3.2,-42.2 4.6,-64"
         id="path20"
         inkscape:connector-curvature="0"
         style="fill:#92c740" />
      <path
         class="st41"
         d="m 693.9,384.6 c -5.2,2.5 -13.5,5.1 -24.3,7.7 -6.7,13.3 -14.9,24.8 -24.7,33.3 1.6,-0.5 2.9,-1 4,-1.5 0.1,0 0.2,0.1 0.2,0.1 11.3,-6.1 21.8,-13.6 31.2,-22.1 4.9,-5.2 9.4,-11 13.6,-17.5"
         id="path22"
         inkscape:connector-curvature="0"
         style="fill:#e7eef6" />
      <path
         class="st42"
         d="m 584.9,136.2 c 16.1,0.7 32,3 46.7,6.6 -5.2,-9.4 -11.3,-15.9 -18.4,-18.6 -12.2,-3.2 -24.9,-5.1 -38,-5.4 0,0.1 0,0.1 0,0.2 4,3.2 7.2,9.2 9.7,17.2"
         id="path24"
         inkscape:connector-curvature="0"
         style="fill:#3d86c7" />
      <path
         class="st42"
         d="m 593.3,280.1 c -0.5,17.3 -2.5,41.1 -6.1,65.6 20.7,-0.1 39.8,-0.5 56.9,-1 4.4,-22.4 6.7,-44.4 7.4,-62.8 -18.1,-1.1 -37.9,-1.6 -58.2,-1.8"
         id="path26"
         inkscape:connector-curvature="0"
         style="fill:#3d86c7" />
      <path
         class="st43"
         d="m 686.9,342.9 c 11.1,-0.7 20.1,-1.3 26.6,-2.1 4.5,-15.2 7.3,-31.8 8.4,-49.5 -6.9,-2.1 -16.2,-3.9 -27.1,-5.4 -0.9,18.3 -3.5,38 -7.9,57"
         id="path28"
         inkscape:connector-curvature="0"
         style="fill:#3f74ba" />
      <path
         class="st44"
         d="m 667.4,155.7 c 9.4,4.7 17.7,10.2 24.5,16.4 -11.6,-12.8 -25.2,-23.7 -40.3,-32.2 6.1,4.4 11.3,9.7 15.8,15.8"
         id="path30"
         inkscape:connector-curvature="0"
         style="fill:#9aceeb" />
      <path
         class="st42"
         d="m 720.2,243.2 c -2.1,-15.1 -5.6,-28.5 -10.1,-40 -0.6,-0.5 -1.3,-1 -1.9,-1.5 -0.2,-0.1 -0.3,-0.3 -0.5,-0.4 -0.1,-0.1 -0.2,-0.1 -0.2,-0.2 -0.4,-0.3 -0.7,-0.5 -1.1,-0.8 -0.1,-0.1 -0.2,-0.1 -0.3,-0.2 -5.7,-4.1 -13.2,-8.3 -22.4,-12.3 4.6,13.5 7.6,28.4 9.3,44 10.7,3.2 20.1,7 27.2,11.4"
         id="path32"
         inkscape:connector-curvature="0"
         style="fill:#3d86c7" />
      <path
         class="st45"
         d="m 594.3,218.3 c 15.9,0.8 36.1,2.2 56.1,5 -1.4,-17.7 -3.7,-33.9 -7.1,-48 -15.1,-3.3 -32.4,-5.6 -52,-6.5 1.7,15.6 2.6,32.9 3,49.5"
         id="path34"
         inkscape:connector-curvature="0"
         style="fill:#8cc641" />
      <path
         class="st46"
         d="m 576.1,401.8 c -3.6,13.5 -7.7,25.6 -12.3,34.8 16.7,0.4 32,-0.9 45,-2.8 7.6,-10.1 14,-22 19.4,-34.8 -15.5,1.7 -33,2.8 -52.1,2.8"
         id="path36"
         inkscape:connector-curvature="0"
         style="fill:#c9e7db" />
      <path
         class="st41"
         d="m 533.7,123.4 c 0,-0.1 0,-0.1 0,-0.2 -14.7,3.5 -28.7,9 -41.6,16.3 -2.2,2.5 -4.4,6.6 -6.5,12.5 14.7,-6.2 31.1,-10.6 48.1,-13.2 0.1,-5.3 0.1,-10.5 0,-15.4"
         id="path38"
         inkscape:connector-curvature="0"
         style="fill:#e7eef6" />
      <path
         class="st47"
         d="m 531.6,219.3 c 0.7,-17 1.3,-33.4 1.7,-48.7 -21.7,2.4 -40,6.5 -55.1,11.4 -2.3,12.4 -4.4,27.5 -6.3,45.4 19,-4 40.3,-6.6 59.7,-8.1"
         id="path40"
         inkscape:connector-curvature="0"
         style="fill:#65bb47" />
      <path
         class="st48"
         d="m 591.2,168.8 c -1.5,-12.5 -3.5,-23.7 -6.3,-32.7 -17,-0.8 -34.4,0.1 -51.1,2.6 0,9.9 -0.2,20.5 -0.4,31.7 12.1,-1.3 25.2,-2.1 39.3,-2.1 6.4,0.1 12.5,0.3 18.5,0.5"
         id="path42"
         inkscape:connector-curvature="0"
         style="fill:#6dbb45" />
      <path
         class="st49"
         d="m 587.2,345.7 c -20,0.1 -41.3,0 -63.6,-0.4 -1.6,19.2 -3.2,37.4 -4.8,53.8 20.3,2 39.5,2.9 57.3,2.8 4.6,-17.3 8.3,-37 11.1,-56.2"
         id="path44"
         inkscape:connector-curvature="0"
         style="fill:#79b443" />
      <path
         class="st50"
         d="m 651.6,277.3 c 0,1.5 -0.1,3 -0.1,4.6 16.1,1 30.8,2.3 43.3,4 0.1,-2.2 0.2,-4.4 0.3,-6.6 0.4,-15.9 -0.1,-31.9 -1.9,-47.3 -13,-3.8 -27.9,-6.6 -42.8,-8.6 1.3,16.9 1.7,35.1 1.2,53.9"
         id="path46"
         inkscape:connector-curvature="0"
         style="fill:#0c64af" />
      <path
         class="st51"
         d="m 644.1,344.7 c -3.7,18.5 -8.9,37.3 -15.9,54.3 16.2,-1.7 30.2,-4.2 41.4,-6.7 7.5,-14.8 13.2,-31.8 17.3,-49.4 -12,0.7 -26.4,1.4 -42.8,1.8"
         id="path48"
         inkscape:connector-curvature="0"
         style="fill:#367dae" />
      <path
         class="st52"
         d="m 468.4,266.5 c 1.1,-14.3 2.2,-27.4 3.5,-39.2 -18.3,3.8 -34.3,8.8 -44.3,15.2 -1.3,9.7 -2.2,19.9 -2.8,31 -0.3,5.3 -0.4,11.8 -0.2,19 11.5,-2.7 26.1,-4.9 42.6,-6.7 0.4,-6.4 0.7,-12.8 1.2,-19.3"
         id="path50"
         inkscape:connector-curvature="0"
         style="fill:#bcd8f1" />
      <path
         class="st53"
         d="m 693.9,384.6 c 3.2,-1.5 5.3,-2.9 6.1,-4.1 0,0.1 0.1,0.2 0.2,0.2 9.7,-12.5 17.6,-26.5 23.3,-41.6 -1.8,0.5 -5.2,1.1 -10,1.6 -4.8,16.6 -11.5,31.3 -19.6,43.9"
         id="path52"
         inkscape:connector-curvature="0"
         style="fill:#cfe3d8" />
      <path
         class="st54"
         d="m 697.5,179 c 0.7,1 1.3,2 2,3 0.2,0.4 0.5,0.7 0.7,1.1 0.5,0.7 0.9,1.5 1.4,2.3 0.2,0.4 0.5,0.8 0.7,1.3 0.5,0.9 1,1.8 1.5,2.7 0.2,0.4 0.4,0.7 0.6,1.1 0.5,1.1 1.1,2.2 1.6,3.3 0.2,0.5 0.4,1 0.7,1.5 0.4,0.8 0.8,1.6 1.1,2.4 0.2,0.5 0.4,1.1 0.7,1.6 0.5,1 0.9,2.1 1.3,3.1 0.1,0.3 0.2,0.6 0.3,0.8 4,3.3 6.9,6.5 8.7,9.3 -6.2,-13.3 -14.1,-25.6 -23.5,-36.6 0.7,1 1.5,2 2.2,3.1 0,0 0,0 0,0"
         id="path54"
         inkscape:connector-curvature="0"
         style="fill:#97ca41" />
      <path
         class="st55"
         d="m 720.2,243.2 c 1.7,12.2 2.4,25.5 2,40 0,2.7 -0.2,5.4 -0.4,8.1 5.2,1.6 9.2,3.3 11.6,5.2 0.5,-5 0.7,-10.1 0.7,-15.2 0,-9.2 -0.8,-18.2 -2.2,-27 -2.5,-4.1 -6.5,-7.8 -11.7,-11.1"
         id="path56"
         inkscape:connector-curvature="0"
         style="fill:#9eca3b" />
      <path
         class="st56"
         d="m 643.3,175.3 c 16,3.4 29.5,7.8 40.5,12.6 -4.1,-12.1 -9.5,-23.1 -16.4,-32.3 -10.7,-5.4 -22.8,-9.7 -35.8,-12.9 4.8,8.7 8.6,19.8 11.7,32.6"
         id="path58"
         inkscape:connector-curvature="0"
         style="fill:#3668b2" />
      <path
         class="st35"
         d="m 593.3,280.1 c 0.1,-1.9 0.1,-3.6 0.1,-5.3 0.7,-13.6 1.3,-34.4 0.9,-56.6 -10.3,-0.5 -18.9,-0.7 -24.5,-0.7 -10.4,0 -23.7,0.5 -38.1,1.6 -0.9,20.3 -2.1,41.2 -3.4,62 21.2,-0.7 43.4,-1.1 65,-1"
         id="path60"
         inkscape:connector-curvature="0"
         style="fill:#4ca447" />
      <path
         class="st41"
         d="m 478.2,181.9 c 2.3,-12.7 4.9,-22.6 7.5,-29.9 -13.8,5.8 -26.2,13.2 -36.5,22.3 0,0 0,0 -0.1,0 -4.8,9.1 -8.6,17.8 -11.7,26.4 8.8,-5.9 22.3,-12.9 40.8,-18.8"
         id="path62"
         inkscape:connector-curvature="0"
         style="fill:#e7eef6" />
      <path
         class="st57"
         d="m 594.3,218.3 c -0.4,-16.6 -1.2,-33.9 -3,-49.4 -6,-0.3 -12.2,-0.4 -18.6,-0.4 -14.1,0 -27.3,0.8 -39.3,2.1 -0.4,15.4 -1,31.8 -1.7,48.7 14.4,-1.1 27.7,-1.6 38.1,-1.6 5.6,-0.1 14.1,0.1 24.5,0.6"
         id="path64"
         inkscape:connector-curvature="0"
         style="fill:#288d44" />
      <path
         class="st58"
         d="m 713.5,340.8 c 4.8,-0.5 8.2,-1.1 10,-1.6 5.1,-13.5 8.6,-27.8 9.9,-42.7 -2.4,-1.9 -6.4,-3.6 -11.6,-5.2 -1,17.7 -3.9,34.3 -8.3,49.5"
         id="path66"
         inkscape:connector-curvature="0"
         style="fill:#7bc044" />
      <path
         class="st35"
         d="m 710.2,203.2 c 4.5,11.5 8,24.9 10.1,40 5.2,3.3 9.2,7 11.7,11.1 -2.5,-14.7 -6.9,-28.8 -13.1,-41.8 -1.8,-2.8 -4.7,-6 -8.7,-9.3"
         id="path68"
         inkscape:connector-curvature="0"
         style="fill:#4ca447" />
      <path
         class="st59"
         d="m 518.8,399 c -1.1,11.7 -2.3,22.5 -3.4,32 16.9,3.7 33.2,5.3 48.4,5.6 4.6,-9.2 8.7,-21.3 12.3,-34.8 -17.8,0.1 -37,-0.7 -57.3,-2.8"
         id="path70"
         inkscape:connector-curvature="0"
         style="fill:#e8f3f6" />
      <path
         class="st60"
         d="m 467.3,285.7 c -16.5,1.8 -31.1,4 -42.6,6.7 0.3,15 1.6,33 3.8,49.2 12.8,0.8 25.7,1.4 38.3,1.9 -0.6,-17.4 -0.5,-36.9 0.5,-57.8"
         id="path72"
         inkscape:connector-curvature="0"
         style="fill:#ecf6ec" />
      <path
         class="st61"
         d="m 608.8,433.8 c 15.9,-2.3 28.5,-5.6 36.1,-8.2 9.8,-8.5 17.9,-20 24.7,-33.3 -11.2,2.6 -25.1,5 -41.4,6.7 -5.4,12.8 -11.7,24.7 -19.4,34.8"
         id="path74"
         inkscape:connector-curvature="0"
         style="fill:#bbd9f2" />
      <path
         class="st62"
         d="m 478.2,181.9 c -18.5,5.9 -32,12.9 -40.8,18.9 -4.8,13.6 -7.9,27.1 -9.8,41.6 10,-6.4 26,-11.4 44.3,-15.2 1.9,-17.8 4,-32.9 6.3,-45.3"
         id="path76"
         inkscape:connector-curvature="0"
         style="fill:#c9e5dc" />
      <path
         class="st63"
         d="m 631.6,142.8 c 12.9,3.2 25.1,7.5 35.8,12.9 -4.5,-6.1 -9.8,-11.4 -15.7,-15.8 -12,-6.8 -24.9,-12.1 -38.5,-15.7 7.2,2.7 13.3,9.2 18.4,18.6"
         id="path78"
         inkscape:connector-curvature="0"
         style="fill:#4c91cd" />
      <path
         class="st64"
         d="m 651.5,281.9 c -0.7,18.5 -2.9,40.5 -7.4,62.8 16.4,-0.5 30.8,-1.1 42.8,-1.8 4.4,-19 7,-38.7 7.8,-57 -12.4,-1.7 -27.2,-3.1 -43.2,-4"
         id="path80"
         inkscape:connector-curvature="0"
         style="fill:#004fa3" />
      <path
         class="st65"
         d="m 650.4,223.3 c 14.9,2.1 29.8,4.9 42.8,8.6 -1.7,-15.6 -4.8,-30.5 -9.3,-44 -11,-4.8 -24.5,-9.2 -40.5,-12.6 3.2,14.1 5.6,30.3 7,48"
         id="path82"
         inkscape:connector-curvature="0"
         style="fill:#224a9d" />
      <path
         class="st66"
         d="m 533.8,138.8 c 16.7,-2.6 34.1,-3.4 51.1,-2.6 -2.5,-8 -5.7,-14 -9.6,-17.1 0,-0.1 0,-0.1 0,-0.2 -1.3,0 -2.5,-0.1 -3.7,-0.1 -13.1,0 -25.7,1.6 -37.9,4.5 0,0.1 0,0.1 0,0.2 0.1,4.8 0.1,10 0.1,15.3"
         id="path84"
         inkscape:connector-curvature="0"
         style="fill:#88b6d7" />
      <path
         class="st67"
         d="m 528.2,281.3 c -1.4,21.8 -3,43.5 -4.6,64 22.3,0.4 43.6,0.5 63.6,0.4 3.6,-24.5 5.6,-48.3 6.1,-65.6 -21.6,-0.1 -43.8,0.3 -65.1,1.2"
         id="path86"
         inkscape:connector-curvature="0"
         style="fill:#1a8859" />
      <path
         class="st43"
         d="m 667.4,155.7 c 6.9,9.2 12.3,20.1 16.4,32.3 9.2,4 16.6,8.2 22.4,12.3 0.1,0.1 0.2,0.1 0.3,0.2 0.4,0.2 0.7,0.5 1.1,0.8 0,0.1 0.1,0.1 0.2,0.2 0.2,0.1 0.4,0.3 0.5,0.4 0.7,0.5 1.3,1 1.9,1.5 -0.1,-0.2 -0.2,-0.5 -0.3,-0.8 -0.4,-1.1 -0.9,-2.1 -1.3,-3.1 -0.2,-0.5 -0.5,-1.1 -0.7,-1.6 -0.4,-0.8 -0.8,-1.6 -1.1,-2.4 -0.2,-0.5 -0.5,-1 -0.7,-1.5 -0.5,-1.1 -1.1,-2.2 -1.6,-3.3 -0.2,-0.3 -0.4,-0.7 -0.6,-1.1 -0.5,-0.9 -1,-1.8 -1.5,-2.7 -0.2,-0.4 -0.5,-0.9 -0.7,-1.3 -0.5,-0.8 -0.9,-1.6 -1.4,-2.3 -0.2,-0.4 -0.5,-0.7 -0.7,-1.1 -0.7,-1 -1.3,-2 -2,-3 0,0 0,0 0,0 -1.2,-1.5 -2.3,-3 -3.4,-4.4 -0.7,-0.8 -1.4,-1.6 -2.1,-2.4 -7,-6.5 -15.3,-12 -24.7,-16.7"
         id="path88"
         inkscape:connector-curvature="0"
         style="fill:#3f74ba" />
    </g>
    <rect
       y="518.99451"
       x="506.28571"
       width="9.9390965"
       style="display:inline;fill:none;stroke:none;stroke-width:0.62119353;marker:none"
       id="rect9596-1"
       height="9.9390965" />
    <rect
       y="526.7442"
       x="506.6001"
       width="1.8597891"
       style="display:inline;overflow:visible;visibility:visible;fill:#3465a4;fill-opacity:1;fill-rule:nonzero;stroke:#204a87;stroke-width:0.62119353;stroke-linejoin:miter;stroke-miterlimit:4.5999999;stroke-dasharray:none;stroke-dashoffset:0;stroke-opacity:1;marker:none;enable-background:accumulate"
       id="rect9611-6"
       height="1.8788415" />
    <rect
       y="526.7442"
       x="509.70605"
       width="1.8597891"
       style="display:inline;overflow:visible;visibility:visible;opacity:0.8;fill:#3465a4;fill-opacity:1;fill-rule:nonzero;stroke:#204a87;stroke-width:0.62119353;stroke-linejoin:miter;stroke-miterlimit:4.5999999;stroke-dasharray:none;stroke-dashoffset:0;stroke-opacity:1;marker:none;enable-background:accumulate"
       id="rect12647-8"
       height="1.8788415" />
    <rect
       y="526.7442"
       x="512.81201"
       width="1.8597891"
       style="display:inline;overflow:visible;visibility:visible;opacity:0.6;fill:#3465a4;fill-opacity:1;fill-rule:nonzero;stroke:#204a87;stroke-width:0.62119353;stroke-linecap:butt;stroke-linejoin:miter;stroke-miterlimit:4.5999999;stroke-dasharray:none;stroke-dashoffset:0;stroke-opacity:1;marker:none;enable-background:accumulate"
       id="rect12649-3"
       height="1.8788415" />
    <rect
       y="523.63824"
       x="506.6001"
       width="1.8597891"
       style="display:inline;overflow:visible;visibility:visible;opacity:0.8;fill:#3465a4;fill-opacity:1;fill-rule:nonzero;stroke:#204a87;stroke-width:0.62119353;stroke-linejoin:miter;stroke-miterlimit:4.5999999;stroke-dasharray:none;stroke-dashoffset:0;stroke-opacity:1;marker:none;enable-background:accumulate"
       id="rect12651-1"
       height="1.8788415" />
    <rect
       y="523.63824"
       x="509.70605"
       width="1.8597891"
       style="display:inline;overflow:visible;visibility:visible;opacity:0.6;fill:#3465a4;fill-opacity:1;fill-rule:nonzero;stroke:#204a87;stroke-width:0.62119353;stroke-linecap:butt;stroke-linejoin:miter;stroke-miterlimit:4.5999999;stroke-dasharray:none;stroke-dashoffset:0;stroke-opacity:1;marker:none;enable-background:accumulate"
       id="rect12653-4"
       height="1.8788415" />
    <rect
       y="523.63824"
       x="512.81201"
       width="1.8597891"
       style="display:inline;overflow:visible;visibility:visible;opacity:0.4;fill:#3465a4;fill-opacity:1;fill-rule:nonzero;stroke:#204a87;stroke-width:0.62119353;stroke-linecap:butt;stroke-linejoin:miter;stroke-miterlimit:4.5999999;stroke-dasharray:none;stroke-dashoffset:0;stroke-opacity:1;marker:none;enable-background:accumulate"
       id="rect12655-8"
       height="1.8788415" />
    <rect
       y="520.53223"
       x="506.6001"
       width="1.8597891"
       style="display:inline;overflow:visible;visibility:visible;opacity:0.6;fill:#3465a4;fill-opacity:1;fill-rule:nonzero;stroke:#204a87;stroke-width:0.62119353;stroke-linecap:butt;stroke-linejoin:miter;stroke-miterlimit:4.5999999;stroke-dasharray:none;stroke-dashoffset:0;stroke-opacity:1;marker:none;enable-background:accumulate"
       id="rect12657-4"
       height="1.8788415" />
    <rect
       y="520.53223"
       x="509.70605"
       width="1.8597891"
       style="display:inline;overflow:visible;visibility:visible;opacity:0.4;fill:#3465a4;fill-opacity:1;fill-rule:nonzero;stroke:#204a87;stroke-width:0.62119353;stroke-linecap:butt;stroke-linejoin:miter;stroke-miterlimit:4.5999999;stroke-dasharray:none;stroke-dashoffset:0;stroke-opacity:1;marker:none;enable-background:accumulate"
       id="rect12659-9"
       height="1.8788415" />
    <rect
       y="520.53223"
       x="512.81201"
       width="1.8597891"
       style="display:inline;overflow:visible;visibility:visible;opacity:0.2;fill:#3465a4;fill-opacity:1;fill-rule:nonzero;stroke:#204a87;stroke-width:0.62119353;stroke-linecap:butt;stroke-linejoin:miter;stroke-miterlimit:4.5999999;stroke-dasharray:none;stroke-dashoffset:0;stroke-opacity:1;marker:none;enable-background:accumulate"
       id="rect12661-2"
       height="1.8788415" />
  </g>
</svg>
